<?xml version="1.0" encoding="UTF-8" standalone="no"?>
<!DOCTYPE svg PUBLIC "-//W3C//DTD SVG 1.1//EN" "http://www.w3.org/Graphics/SVG/1.1/DTD/svg11.dtd">
<svg width="100%" height="100%" viewBox="0 0 3334 3338" version="1.1" xmlns="http://www.w3.org/2000/svg" xmlns:xlink="http://www.w3.org/1999/xlink" xml:space="preserve" xmlns:serif="http://www.serif.com/" style="fill-rule:evenodd;clip-rule:evenodd;stroke-linejoin:round;stroke-miterlimit:1.41421;">
    <g transform="matrix(4.16667,0,0,4.16667,0,0)">
        <g>
            <path d="M571.819,196.483C568.459,193.124 543.999,216.098 541.693,218.422C539.891,220.233 489.571,265.625 440.402,299.867L450.094,312.381C505.488,275.033 554.141,235.127 556.338,233.352C559.085,231.131 561.776,229.079 561.123,226.644C560.683,225.004 559.061,224.801 557.884,225.56C559.034,224.209 560.439,223.061 558.983,221.119C558.331,220.25 556.751,220.256 555.834,220.964C557.56,219.212 558.592,217.3 557.877,215.98C557.109,214.563 554.833,214.086 553.652,214.837C554.99,213.256 574.156,198.817 571.819,196.483Z" style="fill:rgb(253,219,190);fill-rule:nonzero;"/>
            <path d="M440.402,299.867L450.094,312.381C456.023,308.383 461.869,304.357 467.595,300.35L458.242,287.02C452.337,291.401 446.361,295.716 440.402,299.867Z" style="fill:rgb(246,248,249);fill-rule:nonzero;"/>
            <path d="M440.691,299.666C444.97,296.682 449.257,293.612 453.519,290.497L453.52,290.498C449.257,293.613 444.97,296.682 440.691,299.666Z" style="fill:rgb(125,166,145);fill-rule:nonzero;"/>
            <path d="M451.938,311.134C452.081,306.782 452.306,302.596 452.515,298.663L440.691,299.666C444.97,296.682 449.257,293.613 453.52,290.498L457.428,307.386C455.604,308.636 453.777,309.887 451.938,311.134Z" style="fill:rgb(221,222,223);fill-rule:nonzero;"/>
            <path d="M291.245,575.235L326.484,618.579C329.528,622.322 334.104,624.526 338.928,624.462C389.92,623.781 444.362,604.62 490.844,566.83C548.753,519.75 580.916,454.668 583.019,393.251C583.408,381.896 575.387,372.029 564.191,370.092C503.637,359.615 433.361,377.817 375.451,424.898C328.971,462.687 299.1,512.072 288.026,561.852C286.978,566.561 288.202,571.49 291.245,575.235Z" style="fill:rgb(246,248,249);fill-rule:nonzero;"/>
            <path d="M350.358,625.255C367.819,646.732 366.506,677.338 348.487,697.242C345.973,700.02 345.771,704.179 348.134,707.085L348.836,707.949C351.071,710.698 354.939,711.528 358.079,709.887C366.745,705.354 375.095,699.906 382.978,693.497C412.57,669.439 430.472,636.341 435.974,601.416C407.579,614.747 378.05,622.296 349.341,624.067C349.681,624.461 350.027,624.848 350.358,625.255Z" style="fill:rgb(177,80,50);fill-rule:nonzero;"/>
            <path d="M289.572,550.534C272.111,529.057 241.881,524.095 218.718,537.673C215.486,539.567 211.373,538.915 209.01,536.009L208.307,535.145C206.072,532.396 206.05,528.44 208.297,525.702C214.504,518.143 221.541,511.081 229.424,504.672C259.017,480.613 295.071,469.844 330.384,471.587C311.538,496.662 298.121,524.029 290.528,551.773C290.21,551.359 289.903,550.941 289.572,550.534Z" style="fill:rgb(177,80,50);fill-rule:nonzero;"/>
            <path d="M564.332,370.119C537.833,365.518 509.467,366.422 481.088,372.824L563.383,474.047C575.441,447.571 582.116,419.987 583.022,393.107C583.4,381.865 575.415,372.042 564.332,370.119Z" style="fill:rgb(177,80,50);fill-rule:nonzero;"/>
            <path d="M495.934,382.548C495.829,382.548 495.724,382.543 495.619,382.532C494.815,382.449 494.046,382.033 493.528,381.398C493.019,380.771 492.769,379.933 492.852,379.129C492.937,378.308 493.343,377.546 493.979,377.028C494.528,376.582 495.228,376.335 495.931,376.335C496.043,376.335 496.154,376.341 496.266,376.354C497.891,376.522 499.199,378.132 499.032,379.757C498.947,380.579 498.534,381.332 497.898,381.848C497.343,382.3 496.648,382.548 495.934,382.548Z" style="fill:rgb(159,73,46);fill-rule:nonzero;"/>
            <path d="M506.725,395.809C505.822,395.809 504.926,395.417 504.312,394.662C503.231,393.332 503.433,391.375 504.764,390.293C505.339,389.825 506.032,389.598 506.72,389.598C507.624,389.598 508.519,389.989 509.133,390.744C510.215,392.074 510.013,394.032 508.682,395.113C508.107,395.581 507.414,395.809 506.725,395.809Z" style="fill:rgb(159,73,46);fill-rule:nonzero;"/>
            <path d="M539.079,435.604C538.176,435.604 537.28,435.212 536.666,434.457C535.585,433.127 535.786,431.17 537.117,430.088C537.693,429.62 538.386,429.392 539.074,429.392C539.977,429.392 540.873,429.784 541.486,430.538C542.568,431.869 542.366,433.826 541.036,434.908C540.46,435.376 539.768,435.604 539.079,435.604ZM528.294,422.339C527.391,422.339 526.496,421.947 525.882,421.193C524.801,419.862 525.002,417.905 526.333,416.823C526.908,416.355 527.602,416.127 528.29,416.127C529.193,416.127 530.089,416.519 530.702,417.273C531.783,418.604 531.582,420.562 530.252,421.643C529.676,422.111 528.983,422.339 528.294,422.339ZM517.51,409.074C516.607,409.074 515.711,408.683 515.098,407.928C514.015,406.597 514.218,404.64 515.547,403.559C516.124,403.09 516.817,402.862 517.505,402.862C518.409,402.862 519.304,403.254 519.918,404.009C520.999,405.339 520.797,407.297 519.466,408.379C518.891,408.847 518.198,409.074 517.51,409.074Z" style="fill:rgb(159,73,46);fill-rule:nonzero;"/>
            <path d="M536.718,444.739L478.686,373.359C479.487,373.17 480.287,373.005 481.088,372.824L538.163,443.026C537.682,443.599 537.205,444.165 536.718,444.739Z" style="fill:rgb(221,222,223);fill-rule:nonzero;"/>
            <path d="M289.514,550.463C289.51,550.459 289.506,550.454 289.503,550.45C289.506,550.454 289.51,550.459 289.514,550.463ZM289.449,550.384C289.442,550.376 289.435,550.367 289.428,550.358C289.435,550.367 289.442,550.375 289.449,550.384ZM289.402,550.327C287.773,548.342 286.029,546.507 284.196,544.808C284.197,544.805 284.198,544.802 284.199,544.799C286.032,546.498 287.773,548.342 289.402,550.327ZM330.377,471.587C329.97,471.567 329.564,471.548 329.156,471.531C329.564,471.548 329.971,471.566 330.378,471.586L330.377,471.587Z" style="fill:rgb(125,166,145);fill-rule:nonzero;"/>
            <path d="M330.384,471.587C330.382,471.587 330.379,471.587 330.377,471.587L330.378,471.586C330.38,471.586 330.382,471.586 330.384,471.586" style="fill:rgb(221,222,223);fill-rule:nonzero;"/>
            <path d="M290.528,551.773C290.21,551.359 289.903,550.941 289.572,550.534C289.552,550.51 289.533,550.487 289.514,550.463C289.51,550.459 289.506,550.454 289.503,550.45C289.485,550.428 289.467,550.406 289.449,550.384C289.442,550.375 289.435,550.367 289.428,550.358C289.419,550.348 289.411,550.338 289.402,550.327C287.773,548.342 286.032,546.498 284.199,544.799C292.523,519.407 305.438,494.5 322.678,471.413C322.809,471.413 322.939,471.413 323.069,471.413C325.1,471.413 327.129,471.45 329.156,471.531C329.564,471.548 329.97,471.567 330.377,471.587C330.379,471.587 330.382,471.587 330.384,471.587C312.679,495.144 299.765,520.724 291.971,546.738C291.469,548.414 290.987,550.093 290.528,551.773Z" style="fill:rgb(159,73,46);fill-rule:nonzero;"/>
            <path d="M354.889,631.723C353.603,629.582 352.164,627.5 350.556,625.5C352.165,627.501 353.611,629.58 354.898,631.722C354.895,631.722 354.892,631.722 354.889,631.723ZM350.512,625.444C350.511,625.444 350.511,625.443 350.51,625.443L350.512,625.444ZM350.462,625.383C350.461,625.381 350.46,625.38 350.458,625.379C350.46,625.38 350.461,625.381 350.462,625.383ZM350.412,625.321C350.411,625.32 350.409,625.318 350.408,625.316C350.409,625.317 350.411,625.32 350.412,625.321ZM435.933,601.674C435.934,601.663 435.937,601.648 435.939,601.638C435.937,601.65 435.935,601.662 435.933,601.674ZM435.947,601.587C435.956,601.53 435.965,601.474 435.974,601.416C435.965,601.473 435.956,601.53 435.947,601.587Z" style="fill:rgb(125,166,145);fill-rule:nonzero;"/>
            <path d="M354.898,631.722C353.611,629.58 352.165,627.501 350.556,625.5C350.541,625.481 350.527,625.463 350.512,625.444L350.51,625.443C350.494,625.423 350.478,625.403 350.462,625.383C350.461,625.381 350.46,625.38 350.458,625.379C350.443,625.359 350.427,625.34 350.412,625.321C350.411,625.32 350.409,625.317 350.408,625.316C350.391,625.296 350.375,625.275 350.358,625.255C350.028,624.849 349.682,624.462 349.343,624.069C351.957,623.907 354.575,623.697 357.201,623.439C383.417,620.873 410.165,613.533 435.974,601.416C435.965,601.474 435.956,601.53 435.947,601.587C435.944,601.604 435.941,601.621 435.939,601.638C435.937,601.648 435.934,601.663 435.933,601.674C435.539,604.143 435.076,606.602 434.558,609.05C408.449,621.205 381.443,628.758 354.898,631.722Z" style="fill:rgb(159,73,46);fill-rule:nonzero;"/>
            <path d="M300.597,662.22C262.253,693.394 186.075,696.736 186.075,696.736C186.075,696.736 204.896,622.846 243.241,591.671C262.723,575.832 285.573,583.486 301.411,602.968C317.25,622.449 320.079,646.38 300.597,662.22Z" style="fill:rgb(177,80,50);fill-rule:nonzero;"/>
            <path d="M297.839,652.92C282.193,665.641 249.688,671.004 236.969,655.359C224.249,639.715 236.135,608.987 251.78,596.268C267.425,583.548 284.635,590.621 297.354,606.265C310.074,621.91 313.483,640.202 297.839,652.92Z" style="fill:rgb(239,167,52);fill-rule:nonzero;"/>
            <path d="M296.388,634.894C287.13,642.42 267.647,645.795 260.12,636.537C252.593,627.279 259.872,608.895 269.131,601.367C278.389,593.842 286.215,599.944 293.741,609.202C301.268,618.461 305.645,627.367 296.388,634.894Z" style="fill:rgb(246,248,249);fill-rule:nonzero;"/>
            <path d="M288.026,561.852C286.978,566.561 288.202,571.49 291.245,575.235L326.484,618.579C329.528,622.322 334.104,624.526 338.928,624.462C342.382,624.415 345.854,624.277 349.337,624.062L290.533,551.779C289.614,555.132 288.773,558.49 288.026,561.852Z" style="fill:rgb(177,80,50);fill-rule:nonzero;"/>
            <path d="M295.863,558.331L295.36,557.712L295.863,558.331Z" style="fill:rgb(221,222,223);fill-rule:nonzero;"/>
            <path d="M287.704,566.06C287.665,565.35 287.666,564.637 287.725,563.923L295.36,557.712L295.863,558.331L296.397,558.987L287.704,566.06Z" style="fill:rgb(159,73,46);fill-rule:nonzero;"/>
            <path d="M290.728,574.521C290.402,574.071 290.101,573.611 289.826,573.135L300.706,564.283L301.743,565.559L290.728,574.521Z" style="fill:rgb(159,73,46);fill-rule:nonzero;"/>
            <path d="M296.034,581.124L294.996,579.848L306.051,570.855L307.089,572.13L296.034,581.124Z" style="fill:rgb(159,73,46);fill-rule:nonzero;"/>
            <path d="M301.377,587.697L301.359,587.675L300.34,586.421L311.397,577.426L312.435,578.701L301.377,587.697Z" style="fill:rgb(159,73,46);fill-rule:nonzero;"/>
            <path d="M306.721,594.27L306.039,593.431L305.684,592.994L316.743,583.997L317.781,585.273L306.721,594.27Z" style="fill:rgb(159,73,46);fill-rule:nonzero;"/>
            <path d="M323.101,591.812L322.089,590.568L323.101,591.812Z" style="fill:rgb(221,222,223);fill-rule:nonzero;"/>
            <path d="M312.065,600.843L311.028,599.567L322.089,590.568L323.101,591.812L323.127,591.844L312.065,600.843Z" style="fill:rgb(159,73,46);fill-rule:nonzero;"/>
            <path d="M318.568,606.382C317.78,606.382 317.105,606.248 316.565,605.982L327.435,597.14L328.473,598.415L318.681,606.381C318.643,606.382 318.606,606.382 318.568,606.382Z" style="fill:rgb(159,73,46);fill-rule:nonzero;"/>
            <path d="M338.722,624.463C333.974,624.463 329.484,622.269 326.484,618.579L315.682,605.293L315.683,605.293L317.119,607.06L317.409,607.416L326.484,618.579C329.484,622.269 333.974,624.463 338.722,624.463C338.79,624.463 338.859,624.463 338.928,624.462C342.385,624.416 345.857,624.285 349.343,624.069C345.857,624.285 342.385,624.416 338.928,624.462C338.859,624.463 338.79,624.463 338.722,624.463Z" style="fill:rgb(134,175,152);fill-rule:nonzero;"/>
            <path d="M338.928,624.462C342.382,624.415 345.854,624.277 349.337,624.062L344.509,618.127L343.472,616.852L338.335,610.538L338.126,610.281L333.144,604.157L332.781,603.71L331.308,601.901C368.434,585.647 412.138,558.556 455.472,523.324C487.361,497.398 514.989,470.368 536.718,444.739L562.368,476.288C562.717,475.543 563.043,474.793 563.383,474.047L538.163,443.026L563.383,474.047C575.441,447.571 582.116,419.987 583.022,393.107C583.025,393.019 583.028,392.932 583.03,392.845C583.028,392.98 583.024,393.115 583.019,393.25C580.916,454.668 548.753,519.75 490.843,566.83C449.877,600.136 402.723,618.973 357.201,623.439C354.575,623.696 351.956,623.905 349.341,624.067C349.342,624.067 349.342,624.068 349.343,624.069C345.857,624.285 342.385,624.416 338.928,624.462Z" style="fill:rgb(235,235,236);fill-rule:nonzero;"/>
            <path d="M563.383,474.047L538.163,443.026C555.197,422.737 568.499,403.361 577.248,386.151C579.097,382.514 579.247,379.742 577.952,378.144C581.227,382.173 583.122,387.323 583.03,392.845C583.028,392.932 583.025,393.019 583.022,393.107C582.116,419.987 575.441,447.571 563.383,474.047ZM560.672,455.921C559.955,455.921 559.246,456.164 558.686,456.618C558.051,457.136 557.644,457.898 557.552,458.709C557.477,459.524 557.719,460.352 558.236,460.988C558.753,461.624 559.515,462.029 560.326,462.122C560.424,462.131 560.521,462.136 560.619,462.136C561.336,462.136 562.045,461.894 562.605,461.439C563.241,460.922 563.646,460.159 563.739,459.347C563.907,457.722 562.591,456.103 560.965,455.935C560.867,455.926 560.77,455.921 560.672,455.921ZM549.86,442.658C549.171,442.658 548.478,442.886 547.902,443.354C546.571,444.436 546.369,446.392 547.451,447.723C548.065,448.478 548.961,448.87 549.864,448.87C550.552,448.87 551.245,448.642 551.821,448.174C553.151,447.092 553.353,445.135 552.271,443.805C551.658,443.049 550.762,442.658 549.86,442.658Z" style="fill:rgb(169,77,48);fill-rule:nonzero;"/>
            <path d="M549.864,448.87C548.961,448.87 548.065,448.478 547.451,447.723C546.369,446.392 546.571,444.436 547.902,443.354C548.478,442.886 549.171,442.658 549.86,442.658C550.762,442.658 551.658,443.049 552.271,443.805C553.353,445.135 553.151,447.092 551.821,448.174C551.245,448.642 550.552,448.87 549.864,448.87Z" style="fill:rgb(154,70,43);fill-rule:nonzero;"/>
            <path d="M560.619,462.136C560.521,462.136 560.424,462.131 560.326,462.122C559.515,462.029 558.753,461.624 558.236,460.988C557.719,460.352 557.477,459.524 557.552,458.709C557.644,457.898 558.051,457.136 558.686,456.618C559.246,456.164 559.955,455.921 560.672,455.921C560.77,455.921 560.867,455.926 560.965,455.935C562.591,456.103 563.907,457.722 563.739,459.347C563.646,460.159 563.241,460.922 562.605,461.439C562.045,461.894 561.336,462.136 560.619,462.136Z" style="fill:rgb(154,70,43);fill-rule:nonzero;"/>
            <path d="M562.368,476.288L536.718,444.739C537.205,444.165 537.682,443.599 538.163,443.026L563.383,474.047C563.043,474.793 562.717,475.543 562.368,476.288Z" style="fill:rgb(213,214,214);fill-rule:nonzero;"/>
            <path d="M349.343,624.069C349.342,624.068 349.342,624.067 349.341,624.067C351.956,623.905 354.575,623.696 357.201,623.439C354.575,623.697 351.957,623.907 349.343,624.069Z" style="fill:rgb(154,70,43);fill-rule:nonzero;"/>
            <path d="M338.722,624.463C333.974,624.463 329.484,622.269 326.484,618.579L317.409,607.416L318.681,606.381C319.966,606.361 321.544,605.993 323.326,605.27C325.949,604.205 328.613,603.081 331.308,601.901L332.78,603.71L321.715,612.712L322.753,613.988L333.818,604.987L333.144,604.157L338.126,610.281L327.099,619.253C327.472,619.663 327.863,620.051 328.273,620.417L339.164,611.558L338.335,610.538L343.471,616.852L334.775,623.927C335.463,624.108 336.162,624.253 336.874,624.339L344.509,618.127L349.337,624.062C345.854,624.277 342.382,624.415 338.928,624.462C338.859,624.463 338.79,624.463 338.722,624.463ZM317.119,607.06L315.683,605.293L315.683,605.292C315.916,605.578 316.212,605.808 316.565,605.982L316.372,606.14L317.119,607.06Z" style="fill:rgb(169,77,48);fill-rule:nonzero;"/>
            <path d="M317.409,607.416L317.119,607.06L317.409,607.416Z" style="fill:rgb(120,159,138);fill-rule:nonzero;"/>
            <path d="M317.409,607.416L317.119,607.06L316.372,606.14L316.565,605.982C317.105,606.248 317.78,606.382 318.568,606.382C318.606,606.382 318.643,606.382 318.681,606.381L317.409,607.416Z" style="fill:rgb(154,70,43);fill-rule:nonzero;"/>
            <path d="M333.144,604.157L332.78,603.71L332.781,603.71L333.144,604.157Z" style="fill:rgb(213,214,214);fill-rule:nonzero;"/>
            <path d="M322.753,613.988L321.715,612.712L332.781,603.71L333.144,604.157L333.818,604.987L322.753,613.988Z" style="fill:rgb(154,70,43);fill-rule:nonzero;"/>
            <path d="M338.335,610.538L338.126,610.281L338.335,610.538Z" style="fill:rgb(213,214,214);fill-rule:nonzero;"/>
            <path d="M328.273,620.417C327.863,620.051 327.472,619.663 327.099,619.253L338.126,610.281L338.335,610.538L339.164,611.558L328.273,620.417Z" style="fill:rgb(154,70,43);fill-rule:nonzero;"/>
            <path d="M344.509,618.127L343.471,616.852L343.472,616.852L344.509,618.127Z" style="fill:rgb(213,214,214);fill-rule:nonzero;"/>
            <path d="M336.874,624.339C336.162,624.253 335.463,624.108 334.775,623.927L343.472,616.852L344.509,618.127L336.874,624.339Z" style="fill:rgb(154,70,43);fill-rule:nonzero;"/>
            <path d="M372.357,511.894C370.199,511.893 367.459,510.117 364.572,507.469C364.6,507.351 364.627,507.231 364.654,507.11C370.028,482.883 348.084,482.239 348.084,482.239L376.18,456.549L368.487,430.754C369.373,429.984 370.266,429.217 371.165,428.455L382.053,453.453L357.261,482.345C357.261,482.345 357.688,482.306 358.418,482.306C362.902,482.306 378.785,483.792 376.71,505.034C376.23,509.953 374.612,511.894 372.357,511.894Z" style="fill:rgb(221,222,223);fill-rule:nonzero;"/>
            <path d="M312.773,310.513L452.515,298.663C451.518,317.459 450.145,342.023 459.066,363.027C441.43,384.222 373.442,426.11 347.884,427.458C330.428,397.851 317.477,353.848 312.773,310.513Z" style="fill:rgb(246,248,249);fill-rule:nonzero;"/>
            <path d="M459.066,363.027L347.884,427.458L361.839,452.734L337.105,483.16C337.105,483.16 359.571,530.027 364.654,507.11C370.028,482.883 348.084,482.239 348.084,482.239L376.18,456.549L367.971,429.026C367.971,429.026 408.239,401.111 450.473,379.473L451.969,381.342C456.932,379.548 461.914,377.927 466.906,376.475L459.066,363.027Z" style="fill:rgb(83,62,42);fill-rule:nonzero;"/>
            <path d="M452.515,298.663C452.515,298.663 461.826,156.832 350.823,190.546C350.823,190.546 315.381,232.426 312.773,310.513C406.393,334.804 452.515,298.663 452.515,298.663Z" style="fill:rgb(253,219,190);fill-rule:nonzero;"/>
            <path d="M442.216,123.897C452.593,163.551 458.38,219.925 342.169,225.929L340.768,256.068C340.768,256.068 327.629,246.057 325.604,260.315C323.576,274.583 339.862,267.581 339.862,267.581C339.862,267.581 326.984,294.179 312.773,310.513C311.922,311.491 250.996,186.658 314.217,180.344C314.217,180.344 316.914,148.86 361.034,143.528C401.311,138.661 421.864,175.541 442.216,123.897Z" style="fill:rgb(83,62,42);fill-rule:nonzero;"/>
            <path d="M387.694,278.953C387.694,278.953 405.255,274.19 428.694,272.161C428.694,272.161 431.544,294.359 411.799,297.63C390.04,301.234 387.694,278.953 387.694,278.953Z" style="fill:rgb(235,125,134);fill-rule:nonzero;"/>
            <path d="M379.393,252.074C380.794,257.81 379.789,262.983 377.148,263.629C374.506,264.274 371.229,260.147 369.827,254.411C368.426,248.675 369.431,243.502 372.073,242.856C374.714,242.211 377.992,246.338 379.393,252.074Z" style="fill:rgb(83,62,42);fill-rule:nonzero;"/>
            <path d="M435.423,238.385C436.824,244.121 435.818,249.294 433.177,249.939C430.535,250.585 427.258,246.458 425.856,240.722C424.455,234.986 425.46,229.813 428.101,229.167C430.743,228.522 434.021,232.649 435.423,238.385Z" style="fill:rgb(83,62,42);fill-rule:nonzero;"/>
            <path d="M436.522,419.249C435.198,419.249 433.717,419.106 432.289,418.959C429.643,418.854 417.753,416.047 400.941,407.646C407.676,403.487 415.133,399.002 423.007,394.465C430.816,397.966 435.548,399.424 436.238,399.524C439.205,399.95 445.123,401.273 444.373,404.022C444.028,405.284 443.183,405.803 441.626,405.803C441.461,405.803 441.287,405.797 441.105,405.785C442.302,406.243 443.549,406.863 443.467,408.19C443.4,409.342 441.394,410.263 440.046,410.264C440.012,410.264 439.979,410.263 439.946,410.262C439.935,410.26 439.923,410.258 439.912,410.256C439.923,410.258 439.935,410.26 439.946,410.262C441.091,410.451 442.368,411.701 442.302,412.786C442.236,414.057 440.722,414.548 439.398,414.548C439.238,414.548 439.082,414.541 438.931,414.528C440.131,414.98 440.989,415.673 440.915,416.99C440.812,418.776 438.926,419.249 436.522,419.249ZM439.606,410.225C439.602,410.226 439.598,410.226 439.595,410.226C439.598,410.226 439.602,410.226 439.606,410.225ZM439.617,410.225C439.624,410.225 439.63,410.225 439.637,410.226C439.63,410.225 439.624,410.225 439.617,410.225Z" style="fill:rgb(221,222,223);fill-rule:nonzero;"/>
            <path d="M391.136,402.393C370.226,390.438 344.04,370.642 318.822,338.811L329.367,327.006C362.961,360.435 393.349,379.558 413.074,389.68L391.136,402.393Z" style="fill:rgb(221,222,223);fill-rule:nonzero;"/>
            <path d="M400.941,407.646C397.832,406.093 394.554,404.347 391.136,402.393L413.074,389.68C416.779,391.582 420.104,393.164 423.007,394.465C415.133,399.002 407.676,403.487 400.941,407.646Z" style="fill:rgb(75,56,37);fill-rule:nonzero;"/>
            <path d="M329.274,326.923C386.594,383.074 434.392,398.286 436.711,398.602C439.681,399.005 445.608,400.281 444.881,403.035C444.51,404.436 443.519,404.93 441.627,404.825C442.827,405.274 444.078,405.884 444.007,407.211C443.947,408.393 441.849,409.348 440.502,409.311C440.384,409.293 440.264,409.274 440.15,409.277C440.264,409.274 440.384,409.293 440.502,409.311C441.648,409.491 442.935,410.732 442.877,411.817C442.815,413.24 440.927,413.701 439.519,413.584C440.725,414.027 441.588,414.713 441.523,416.03C441.387,418.802 436.113,417.536 432.975,416.755C430.466,416.129 380.371,400.485 318.822,338.81L329.274,326.923Z" style="fill:rgb(253,219,190);fill-rule:nonzero;"/>
            <path d="M329.274,326.923L318.822,338.811C323.325,343.322 327.757,347.56 332.123,351.591L342.114,338.965C337.896,335.169 333.617,331.178 329.274,326.923Z" style="fill:rgb(246,248,249);fill-rule:nonzero;"/>
            <path d="M402.224,375.112L388.372,364.865L399.046,352.594C399.269,352.596 399.496,352.597 399.716,352.597C437.868,352.599 436.512,328.535 436.512,328.535L430.507,323.617L431.662,318.966L441.686,314.931L445.681,319.125L443.597,325.929C443.597,325.929 448.281,364.68 402.224,375.112Z" style="fill:rgb(235,235,236);fill-rule:nonzero;"/>
            <path d="M441.686,314.931L445.681,319.125L443.597,325.929C443.597,325.929 447.995,361.164 401.937,371.596L388.086,361.35L398.76,349.079C437.593,349.362 436.512,328.535 436.512,328.535L430.507,323.617L431.662,318.965L441.686,314.931Z" style="fill:rgb(83,62,42);fill-rule:nonzero;"/>
            <path d="M236.57,364.321C236.138,364.321 235.786,363.969 235.786,363.536L235.786,358.775C235.786,358.342 236.138,357.99 236.571,357.99C237.003,357.99 237.355,358.342 237.355,358.775L237.355,363.536C237.355,363.969 237.003,364.321 236.57,364.321Z" style="fill:rgb(231,241,236);fill-rule:nonzero;"/>
            <path d="M232.385,365.742C232.175,365.742 231.978,365.661 231.83,365.512L228.463,362.146C228.315,361.998 228.233,361.801 228.233,361.591C228.233,361.382 228.315,361.185 228.463,361.037C228.611,360.888 228.809,360.807 229.017,360.807C229.227,360.807 229.424,360.888 229.573,361.037L232.939,364.403C233.088,364.552 233.17,364.749 233.17,364.958C233.17,365.168 233.088,365.364 232.939,365.513C232.791,365.661 232.594,365.742 232.385,365.742Z" style="fill:rgb(231,241,236);fill-rule:nonzero;"/>
            <path d="M225.669,369.708C225.236,369.708 224.885,369.356 224.885,368.923C224.885,368.491 225.236,368.139 225.669,368.139L230.431,368.139C230.863,368.139 231.215,368.491 231.215,368.923C231.215,369.356 230.863,369.708 230.431,369.708L225.669,369.708Z" style="fill:rgb(231,241,236);fill-rule:nonzero;"/>
            <path d="M228.485,377.26C228.276,377.26 228.079,377.179 227.931,377.03C227.783,376.882 227.701,376.685 227.701,376.476C227.701,376.266 227.783,376.069 227.931,375.921L231.298,372.554C231.446,372.406 231.643,372.324 231.853,372.324C232.062,372.324 232.259,372.406 232.408,372.554C232.556,372.703 232.637,372.9 232.637,373.109C232.637,373.319 232.556,373.515 232.408,373.664L229.04,377.03C228.892,377.179 228.695,377.26 228.485,377.26Z" style="fill:rgb(231,241,236);fill-rule:nonzero;"/>
            <path d="M235.817,380.609C235.385,380.609 235.033,380.257 235.033,379.824L235.033,375.063C235.033,374.631 235.385,374.279 235.818,374.279C236.25,374.279 236.602,374.631 236.602,375.063L236.602,379.824C236.602,380.257 236.25,380.609 235.817,380.609Z" style="fill:rgb(231,241,236);fill-rule:nonzero;"/>
            <path d="M243.37,377.793C243.161,377.793 242.964,377.711 242.815,377.563L239.449,374.196C239.301,374.048 239.219,373.851 239.219,373.641C239.219,373.432 239.301,373.235 239.449,373.087C239.598,372.938 239.794,372.857 240.004,372.857C240.213,372.857 240.41,372.938 240.559,373.087L243.925,376.454C244.073,376.602 244.155,376.799 244.155,377.008C244.155,377.218 244.073,377.415 243.925,377.563C243.776,377.711 243.579,377.793 243.37,377.793Z" style="fill:rgb(231,241,236);fill-rule:nonzero;"/>
            <path d="M241.957,370.461C241.525,370.461 241.173,370.109 241.173,369.676C241.173,369.243 241.525,368.891 241.957,368.891L246.719,368.892C247.152,368.892 247.504,369.244 247.504,369.676C247.503,370.109 247.151,370.461 246.719,370.461L241.957,370.461Z" style="fill:rgb(231,241,236);fill-rule:nonzero;"/>
            <path d="M240.536,366.275C240.326,366.275 240.129,366.193 239.981,366.045C239.833,365.897 239.751,365.7 239.751,365.49C239.751,365.281 239.833,365.084 239.981,364.935L243.348,361.569C243.496,361.421 243.693,361.34 243.903,361.34C244.112,361.34 244.309,361.421 244.457,361.569C244.763,361.875 244.763,362.373 244.457,362.679L241.09,366.045C240.942,366.193 240.745,366.275 240.536,366.275Z" style="fill:rgb(231,241,236);fill-rule:nonzero;"/>
            <path d="M631.344,244.594C630.768,244.594 630.299,244.126 630.299,243.549L630.299,228.582C630.299,228.005 630.768,227.537 631.344,227.537C631.92,227.537 632.389,228.005 632.389,228.582L632.389,243.549C632.389,244.126 631.92,244.594 631.344,244.594Z" style="fill:rgb(231,241,236);fill-rule:nonzero;"/>
            <path d="M623.86,237.111C623.284,237.111 622.815,236.642 622.815,236.066C622.815,235.489 623.284,235.021 623.86,235.021L638.828,235.021C639.404,235.021 639.873,235.489 639.873,236.066C639.873,236.642 639.404,237.111 638.828,237.111L623.86,237.111Z" style="fill:rgb(231,241,236);fill-rule:nonzero;"/>
            <path d="M201.842,253.81C201.354,253.81 200.958,253.414 200.958,252.926L200.958,240.263C200.958,239.776 201.354,239.379 201.842,239.379C202.329,239.379 202.726,239.776 202.726,240.263L202.726,252.926C202.726,253.414 202.329,253.81 201.842,253.81Z" style="fill:rgb(231,241,236);fill-rule:nonzero;"/>
            <path d="M195.512,247.479C195.024,247.479 194.627,247.082 194.627,246.594C194.627,246.107 195.024,245.71 195.512,245.71L208.174,245.71C208.662,245.71 209.058,246.107 209.058,246.594C209.058,247.082 208.662,247.479 208.174,247.479L195.512,247.479Z" style="fill:rgb(231,241,236);fill-rule:nonzero;"/>
            <path d="M712.571,336.599C711.868,336.599 711.296,336.027 711.296,335.324L711.296,317.055C711.296,316.352 711.868,315.779 712.571,315.779C713.274,315.779 713.847,316.352 713.847,317.055L713.847,335.324C713.847,336.027 713.274,336.599 712.571,336.599Z" style="fill:rgb(231,241,236);fill-rule:nonzero;"/>
            <path d="M703.437,327.465C702.734,327.465 702.162,326.893 702.162,326.19C702.162,325.486 702.734,324.914 703.437,324.914L721.705,324.914C722.409,324.914 722.98,325.486 722.98,326.19C722.98,326.893 722.409,327.465 721.705,327.465L703.437,327.465Z" style="fill:rgb(231,241,236);fill-rule:nonzero;"/>
            <path d="M277.911,84.281C276.371,84.281 275.118,85.534 275.118,87.073C275.118,88.613 276.371,89.866 277.911,89.866C279.451,89.866 280.703,88.613 280.703,87.073C280.703,85.534 279.451,84.281 277.911,84.281ZM277.911,91.551C275.441,91.551 273.433,89.543 273.433,87.073C273.433,84.605 275.441,82.596 277.911,82.596C280.38,82.596 282.389,84.605 282.389,87.073C282.389,89.543 280.38,91.551 277.911,91.551Z" style="fill:rgb(231,241,236);fill-rule:nonzero;"/>
            <path d="M599.281,333.412C597.861,333.366 596.669,334.483 596.623,335.902C596.576,337.322 597.693,338.515 599.113,338.561C600.533,338.608 601.726,337.49 601.771,336.07C601.818,334.651 600.701,333.459 599.281,333.412ZM599.062,340.115C596.786,340.041 594.995,338.128 595.069,335.852C595.143,333.576 597.056,331.784 599.332,331.859C601.608,331.933 603.399,333.845 603.325,336.121C603.251,338.398 601.339,340.189 599.062,340.115Z" style="fill:rgb(231,241,236);fill-rule:nonzero;"/>
            <path d="M103.261,162.425C101.204,162.425 99.531,164.098 99.531,166.154C99.531,168.211 101.204,169.884 103.261,169.884C105.318,169.884 106.991,168.211 106.991,166.154C106.991,164.098 105.318,162.425 103.261,162.425ZM103.261,172.136C99.962,172.136 97.28,169.452 97.28,166.154C97.28,162.857 99.962,160.173 103.261,160.173C106.559,160.173 109.242,162.857 109.242,166.154C109.242,169.452 106.559,172.136 103.261,172.136Z" style="fill:rgb(231,241,236);fill-rule:nonzero;"/>
            <path d="M669.393,132.391C668.415,132.391 667.619,131.603 667.619,130.633C667.619,129.655 668.411,128.86 669.385,128.86C670.358,128.86 671.15,129.651 671.15,130.625C671.15,131.599 670.362,132.391 669.393,132.391ZM676.464,135.295C675.998,135.295 675.558,135.116 675.222,134.791C674.538,134.095 674.532,132.966 675.217,132.282C675.55,131.948 675.994,131.765 676.466,131.765C676.936,131.765 677.38,131.948 677.713,132.282C678.397,132.966 678.403,134.085 677.724,134.775C677.375,135.112 676.936,135.295 676.464,135.295ZM662.321,135.339C661.852,135.339 661.409,135.155 661.073,134.821C660.387,134.132 660.386,133.012 661.073,132.325C661.404,131.988 661.845,131.805 662.318,131.805C662.79,131.805 663.234,131.989 663.569,132.325C663.904,132.653 664.088,133.091 664.09,133.562C664.092,134.036 663.907,134.484 663.569,134.821C663.235,135.154 662.792,135.339 662.321,135.339ZM679.422,142.402C678.448,142.402 677.656,141.605 677.656,140.627C677.656,139.634 678.444,138.826 679.412,138.826C680.38,138.826 681.177,139.612 681.187,140.578C681.187,141.599 680.412,142.402 679.422,142.402ZM659.417,142.419C658.438,142.419 657.643,141.627 657.643,140.653C657.643,139.679 658.435,138.887 659.408,138.887C660.382,138.887 661.174,139.675 661.174,140.644C661.174,141.623 660.386,142.419 659.417,142.419ZM676.49,149.465C676.019,149.465 675.577,149.281 675.243,148.946C674.56,148.264 674.56,147.146 675.24,146.453C675.577,146.122 676.023,145.937 676.494,145.937C676.966,145.937 677.408,146.12 677.738,146.451C678.075,146.788 678.261,147.235 678.259,147.709C678.257,148.18 678.071,148.62 677.736,148.949C677.412,149.284 676.973,149.465 676.49,149.465ZM662.348,149.481C661.991,149.481 661.648,149.374 661.357,149.172L661.244,149.093L661.233,149.093L661.095,148.959C660.417,148.281 660.416,147.163 661.098,146.47C661.434,146.134 661.879,145.948 662.351,145.948C662.824,145.948 663.267,146.133 663.598,146.47C664.289,147.15 664.29,148.264 663.606,148.96C663.258,149.298 662.82,149.481 662.348,149.481ZM669.428,152.404C668.454,152.402 667.662,151.611 667.662,150.638C667.662,149.665 668.453,148.873 669.426,148.873C670.4,148.873 671.193,149.666 671.193,150.639C671.193,151.612 670.401,152.404 669.428,152.404Z" style="fill:rgb(231,241,236);fill-rule:nonzero;"/>
            <path d="M88.756,331.408C87.719,331.408 86.876,330.572 86.876,329.545C86.876,328.508 87.716,327.664 88.748,327.664C89.779,327.664 90.62,328.504 90.62,329.536C90.62,330.569 89.783,331.408 88.756,331.408ZM96.253,334.486C95.758,334.486 95.29,334.296 94.935,333.952C94.211,333.215 94.205,332.017 94.93,331.292C95.283,330.939 95.754,330.744 96.255,330.744C96.754,330.744 97.223,330.939 97.576,331.292C98.302,332.018 98.308,333.204 97.588,333.935C97.219,334.293 96.754,334.486 96.253,334.486ZM81.26,334.533C80.762,334.533 80.292,334.339 79.937,333.985C79.208,333.254 79.208,332.066 79.937,331.338C80.287,330.982 80.755,330.787 81.257,330.787C81.757,330.787 82.227,330.983 82.583,331.339C82.937,331.688 83.132,332.152 83.134,332.65C83.136,333.153 82.94,333.628 82.582,333.985C82.228,334.34 81.759,334.533 81.26,334.533ZM99.389,342.021C98.357,342.021 97.517,341.176 97.517,340.139C97.517,339.086 98.352,338.23 99.379,338.23C100.405,338.23 101.248,339.063 101.261,340.087C101.261,341.169 100.438,342.021 99.389,342.021ZM78.182,342.039C77.144,342.039 76.3,341.199 76.3,340.167C76.3,339.135 77.14,338.296 78.172,338.296C79.204,338.296 80.044,339.131 80.044,340.158C80.044,341.195 79.208,342.039 78.182,342.039ZM96.281,349.508C95.782,349.508 95.312,349.313 94.959,348.959C94.236,348.235 94.234,347.049 94.956,346.315C95.312,345.965 95.787,345.768 96.285,345.768C96.784,345.768 97.253,345.962 97.604,346.312C97.962,346.67 98.158,347.143 98.156,347.646C98.154,348.145 97.956,348.612 97.602,348.961C97.258,349.317 96.792,349.508 96.281,349.508ZM81.288,349.526C80.911,349.526 80.548,349.413 80.239,349.198L80.118,349.115L80.107,349.115L79.96,348.972C79.241,348.255 79.241,347.069 79.963,346.335C80.318,345.978 80.79,345.78 81.291,345.78C81.792,345.78 82.262,345.977 82.613,346.334C83.346,347.054 83.348,348.236 82.624,348.975C82.254,349.332 81.789,349.526 81.288,349.526ZM88.794,352.625C87.762,352.625 86.922,351.785 86.922,350.753C86.922,349.72 87.762,348.881 88.794,348.881C89.826,348.881 90.666,349.72 90.666,350.753C90.666,351.785 89.826,352.625 88.794,352.625Z" style="fill:rgb(231,241,236);fill-rule:nonzero;"/>
            <path d="M496.553,79.55C495.94,79.55 495.442,79.052 495.442,78.439L495.442,72.124C495.442,71.511 495.94,71.013 496.553,71.013C497.165,71.013 497.664,71.511 497.664,72.124L497.664,78.439C497.664,79.052 497.165,79.55 496.553,79.55Z" style="fill:rgb(231,241,236);fill-rule:nonzero;"/>
            <path d="M491.002,81.436C490.706,81.436 490.428,81.321 490.218,81.111L485.752,76.646C485.541,76.436 485.426,76.157 485.426,75.86C485.426,75.564 485.541,75.285 485.752,75.075C485.961,74.865 486.239,74.75 486.537,74.75C486.833,74.75 487.113,74.865 487.322,75.075L491.787,79.54C492.22,79.973 492.22,80.678 491.787,81.111C491.578,81.32 491.299,81.436 491.002,81.436Z" style="fill:rgb(231,241,236);fill-rule:nonzero;"/>
            <path d="M482.096,86.695C481.482,86.695 480.984,86.197 480.984,85.585C480.984,84.972 481.482,84.474 482.096,84.474L488.41,84.474C489.023,84.474 489.52,84.972 489.52,85.585C489.52,86.197 489.023,86.695 488.41,86.695L482.096,86.695Z" style="fill:rgb(231,241,236);fill-rule:nonzero;"/>
            <path d="M485.831,96.712C485.535,96.712 485.256,96.596 485.046,96.387C484.836,96.177 484.721,95.898 484.721,95.601C484.721,95.304 484.836,95.025 485.046,94.815L489.512,90.35C489.721,90.14 490,90.025 490.297,90.025C490.594,90.025 490.872,90.141 491.083,90.35C491.515,90.783 491.515,91.488 491.083,91.921L486.616,96.387C486.407,96.596 486.128,96.712 485.831,96.712Z" style="fill:rgb(231,241,236);fill-rule:nonzero;"/>
            <path d="M495.556,101.152C494.943,101.152 494.445,100.654 494.445,100.042L494.445,93.727C494.445,93.114 494.943,92.617 495.556,92.617C496.168,92.617 496.667,93.114 496.667,93.727L496.667,100.042C496.667,100.654 496.168,101.152 495.556,101.152Z" style="fill:rgb(231,241,236);fill-rule:nonzero;"/>
            <path d="M505.572,97.417C505.275,97.417 504.996,97.301 504.787,97.092L500.322,92.626C500.111,92.417 499.996,92.137 499.996,91.84C499.996,91.544 500.111,91.265 500.322,91.055C500.532,90.845 500.81,90.73 501.107,90.73C501.403,90.73 501.683,90.845 501.892,91.055L506.357,95.521C506.567,95.731 506.684,96.01 506.684,96.306C506.684,96.603 506.567,96.882 506.357,97.092C506.148,97.302 505.869,97.417 505.572,97.417Z" style="fill:rgb(231,241,236);fill-rule:nonzero;"/>
            <path d="M503.698,87.692C503.086,87.692 502.587,87.194 502.587,86.582C502.587,85.969 503.086,85.471 503.698,85.471L510.014,85.471C510.626,85.471 511.124,85.969 511.124,86.582C511.124,87.194 510.626,87.692 510.014,87.692L503.698,87.692Z" style="fill:rgb(231,241,236);fill-rule:nonzero;"/>
            <path d="M501.812,82.141C501.517,82.141 501.237,82.025 501.027,81.816C500.817,81.606 500.701,81.327 500.701,81.03C500.701,80.734 500.817,80.455 501.027,80.245L505.491,75.78C505.702,75.57 505.981,75.455 506.277,75.455C506.574,75.455 506.852,75.57 507.063,75.78C507.495,76.213 507.495,76.918 507.063,77.351L502.598,81.816C502.387,82.025 502.108,82.141 501.812,82.141Z" style="fill:rgb(231,241,236);fill-rule:nonzero;"/>
            <path d="M172.144,493.986C171.268,493.986 170.414,494.075 169.579,494.218C169.59,493.928 169.622,493.644 169.622,493.351C169.622,481.625 160.116,472.119 148.39,472.119C138.252,472.119 129.787,479.23 127.677,488.732C127.503,488.726 127.333,488.705 127.158,488.705C117.263,488.705 109.242,496.726 109.242,506.62C109.242,516.516 117.263,524.536 127.158,524.536L172.144,524.536C180.58,524.536 187.42,517.698 187.42,509.261C187.42,500.824 180.58,493.986 172.144,493.986Z" style="fill:rgb(162,197,177);fill-rule:nonzero;"/>
            <path d="M678.86,517.811C678.079,517.811 677.319,517.891 676.574,518.018C676.585,517.759 676.613,517.506 676.613,517.245C676.613,506.797 668.143,498.327 657.695,498.327C648.663,498.327 641.122,504.663 639.24,513.13C639.086,513.125 638.935,513.107 638.778,513.107C629.962,513.107 622.815,520.252 622.815,529.069C622.815,537.884 629.962,545.031 638.778,545.031L678.86,545.031C686.377,545.031 692.471,538.938 692.471,531.421C692.471,523.904 686.377,517.811 678.86,517.811Z" style="fill:rgb(162,197,177);fill-rule:nonzero;"/>
            <path d="M733.138,663.37C732.579,663.37 732.034,663.427 731.499,663.513C731.584,662.826 731.633,662.13 731.633,661.421C731.633,652.11 724.085,644.563 714.774,644.563C705.891,644.563 698.616,651.437 697.969,660.155C697.041,659.929 696.077,659.795 695.08,659.795C688.381,659.795 682.949,665.226 682.949,671.925C682.949,678.624 688.381,684.056 695.08,684.056L733.138,684.056C738.85,684.056 743.48,679.425 743.48,673.713C743.48,668.001 738.85,663.37 733.138,663.37Z" style="fill:rgb(162,197,177);fill-rule:nonzero;"/>
            <path d="M107.557,642.67C107.03,642.67 106.517,642.724 106.013,642.804C106.093,642.158 106.139,641.501 106.139,640.833C106.139,632.059 99.025,624.945 90.25,624.945C81.878,624.945 75.022,631.424 74.412,639.641C73.538,639.427 72.629,639.301 71.689,639.301C65.376,639.301 60.258,644.419 60.258,650.733C60.258,657.046 65.376,662.164 71.689,662.164L107.557,662.164C112.94,662.164 117.304,657.801 117.304,652.417C117.304,647.034 112.94,642.67 107.557,642.67Z" style="fill:rgb(162,197,177);fill-rule:nonzero;"/>
            <path d="M535.765,720.038C535.3,720.038 534.849,720.085 534.404,720.156C534.474,719.587 534.516,719.008 534.516,718.42C534.516,710.69 528.249,704.424 520.518,704.424C513.142,704.424 507.103,710.131 506.566,717.369C505.796,717.181 504.996,717.069 504.168,717.069C498.605,717.069 494.097,721.578 494.097,727.141C494.097,732.702 498.605,737.211 504.168,737.211L535.765,737.211C540.507,737.211 544.35,733.367 544.35,728.625C544.35,723.882 540.507,720.038 535.765,720.038Z" style="fill:rgb(162,197,177);fill-rule:nonzero;"/>
        </g>
    </g>
</svg>
