<svg xmlns="http://www.w3.org/2000/svg" width="279.28" height="356.79" viewBox="0 0 279.28 356.79"><title>Asset 2</title><g style="isolation:isolate"><g id="Layer_2" data-name="Layer 2"><g id="Object"><polygon points="4.67 253.95 4.67 354.45 12.82 354.45 12.82 267.69 269.5 267.69 269.5 354.45 277.65 354.45 277.65 253.95 4.67 253.95" fill="#404041"/><rect x="4.67" y="252.02" width="272.98" height="1.93" fill="#26a8df"/><polygon points="169.53 251.2 146.26 251.2 149.64 230.08 166.15 230.08 169.53 251.2" fill="#f3f3f3"/><polygon points="167.25 236.69 166.15 230.08 149.64 230.08 148.54 236.69 167.25 236.69" fill="#bebdbe" style="mix-blend-mode:darken"/><rect x="98.07" y="160.09" width="119.66" height="73.25" rx="4.62" ry="4.62" fill="#404041"/><rect x="103.35" y="164.89" width="109.09" height="57.34" fill="#58595b"/><rect x="106.92" y="167.82" width="19.39" height="51.48" fill="#6d6e70"/><rect x="129.59" y="167.82" width="79.92" height="51.48" fill="#6d6e70"/><path d="M98.07,226.82v1.91a4.6,4.6,0,0,0,4.61,4.61H213.11a4.6,4.6,0,0,0,4.61-4.61v-1.91Z" fill="#f3f3f3"/><polygon points="146.51 249.59 146.26 251.2 169.53 251.2 169.28 249.59 146.51 249.59" fill="#bebdbe" style="mix-blend-mode:darken"/><rect x="139.61" y="250.38" width="36.57" height="1.64" fill="#f3f3f3"/><rect x="108.87" y="171.44" width="15.88" height="1.23" fill="#e5e6e7"/><rect x="133.78" y="171.44" width="4.23" height="1.23" fill="#e5e6e7"/><rect x="130.87" y="171.44" width="1.04" height="1.23" fill="#e5e6e7"/><rect x="133.78" y="174.35" width="18.4" height="1.23" fill="#e5e6e7"/><rect x="130.87" y="174.35" width="1.04" height="1.23" fill="#e5e6e7"/><rect x="133.78" y="177.26" width="14.96" height="1.23" fill="#e5e6e7"/><rect x="130.87" y="177.26" width="1.04" height="1.23" fill="#e5e6e7"/><rect x="133.78" y="180.17" width="22.47" height="1.23" fill="#e5e6e7"/><rect x="130.87" y="180.17" width="1.04" height="1.23" fill="#e5e6e7"/><rect x="133.78" y="183.08" width="28.27" height="1.23" fill="#e5e6e7"/><rect x="130.87" y="183.08" width="1.04" height="1.23" fill="#e5e6e7"/><rect x="130.87" y="185.99" width="1.04" height="1.23" fill="#e5e6e7"/><rect x="130.87" y="188.9" width="1.04" height="1.23" fill="#e5e6e7"/><rect x="133.78" y="191.81" width="35.36" height="1.23" fill="#e5e6e7"/><rect x="130.87" y="191.81" width="1.04" height="1.23" fill="#e5e6e7"/><rect x="133.78" y="194.72" width="24.54" height="1.23" fill="#e5e6e7"/><rect x="130.87" y="194.72" width="1.04" height="1.23" fill="#e5e6e7"/><rect x="133.78" y="197.63" width="19.57" height="1.23" fill="#e5e6e7"/><rect x="130.87" y="197.63" width="1.04" height="1.23" fill="#e5e6e7"/><rect x="133.78" y="200.54" width="27.87" height="1.23" fill="#e5e6e7"/><rect x="130.87" y="200.54" width="1.04" height="1.23" fill="#e5e6e7"/><rect x="133.78" y="203.45" width="23.21" height="1.23" fill="#e5e6e7"/><rect x="130.87" y="203.45" width="1.04" height="1.23" fill="#e5e6e7"/><rect x="133.78" y="206.36" width="46.61" height="1.23" fill="#e5e6e7"/><rect x="130.87" y="206.36" width="1.04" height="1.23" fill="#e5e6e7"/><rect x="133.78" y="209.27" width="8.46" height="1.23" fill="#e5e6e7"/><rect x="130.87" y="209.27" width="1.04" height="1.23" fill="#e5e6e7"/><rect x="133.78" y="212.18" width="17.68" height="1.23" fill="#e5e6e7"/><rect x="130.87" y="212.18" width="1.04" height="1.23" fill="#e5e6e7"/><rect x="133.78" y="215.08" width="1.31" height="1.23" fill="#e5e6e7"/><rect x="130.87" y="215.08" width="1.04" height="1.23" fill="#e5e6e7"/><rect x="108.87" y="174.35" width="15.88" height="1.23" fill="#e5e6e7"/><rect x="108.87" y="177.26" width="15.88" height="1.23" fill="#e5e6e7"/><rect x="108.87" y="180.17" width="15.88" height="1.23" fill="#e5e6e7"/><rect x="108.87" y="183.08" width="15.88" height="1.23" fill="#e5e6e7"/><rect x="108.87" y="185.99" width="15.88" height="1.23" fill="#e5e6e7"/><rect x="108.87" y="188.9" width="15.88" height="1.23" fill="#e5e6e7"/><rect x="108.87" y="191.81" width="15.88" height="1.23" fill="#e5e6e7"/><rect x="108.87" y="194.72" width="15.88" height="1.23" fill="#e5e6e7"/><rect x="108.87" y="197.63" width="15.88" height="1.23" fill="#e5e6e7"/><rect x="108.87" y="200.54" width="15.88" height="1.23" fill="#e5e6e7"/><rect x="108.87" y="203.45" width="15.88" height="1.23" fill="#e5e6e7"/><rect x="108.87" y="206.36" width="15.88" height="1.23" fill="#e5e6e7"/><rect x="108.87" y="209.27" width="15.88" height="1.23" fill="#e5e6e7"/><rect x="108.87" y="212.18" width="15.88" height="1.23" fill="#e5e6e7"/><rect x="108.87" y="215.08" width="15.88" height="1.23" fill="#e5e6e7"/><path d="M160.5,230.11a2.08,2.08,0,1,1-2.08-2.07A2.08,2.08,0,0,1,160.5,230.11Z" fill="#404041"/><path d="M250.62,204.47H184.83a4.44,4.44,0,0,0-4.44,4.44v39h74.67v-39A4.44,4.44,0,0,0,250.62,204.47Z" fill="#404041"/><path d="M250.62,207.51H184.83a1.4,1.4,0,0,0-1.4,1.4v35.93H252V208.91A1.4,1.4,0,0,0,250.62,207.51Z" fill="#58595b"/><path d="M205.53,223.54l-10.36,4.28,10.36,4.25v3.43l-14.63-6.23v-2.9l14.63-6.26Z" fill="#e5e6e7"/><path d="M220.26,215.28h3.26l-6.11,21.79h-3.2Z" fill="#e5e6e7"/><path d="M232.16,232.07l10.36-4.28-10.36-4.25v-3.43l14.63,6.26v2.88l-14.63,6.25Z" fill="#e5e6e7"/><path d="M176,247.88a4.13,4.13,0,0,0,4.13,4.14h75.18a4.14,4.14,0,0,0,4.14-4.14Z" fill="#f3f3f3"/><rect x="180.39" y="247.09" width="74.67" height="0.79" fill="#464052" style="mix-blend-mode:multiply"/><path d="M225.31,249.06H210.14a1.18,1.18,0,0,1-1.18-1.18h17.53A1.18,1.18,0,0,1,225.31,249.06Z" fill="#bebdbe" style="mix-blend-mode:darken"/><path d="M95.19,175H1.8a1.8,1.8,0,0,0-1.8,1.8v57.78a1.81,1.81,0,0,0,1.8,1.8H43.37V250.6H24.75v1.5h47.5v-1.5H53.62V236.35H95.19a1.8,1.8,0,0,0,1.8-1.8V176.77A1.79,1.79,0,0,0,95.19,175Z" fill="#404041"/><rect x="4.11" y="179.69" width="88.78" height="50.33" fill="#e5e6e7"/><rect x="6.24" y="185.78" width="11.82" height="36.56" fill="#6d6e70"/><rect x="20.06" y="185.78" width="48.72" height="36.56" fill="#6d6e70"/><rect x="7.42" y="188.35" width="9.68" height="0.88" fill="#e5e6e7"/><rect x="22.61" y="188.35" width="2.58" height="0.88" fill="#e5e6e7"/><rect x="20.84" y="188.35" width="0.64" height="0.88" fill="#e5e6e7"/><rect x="22.61" y="190.42" width="11.22" height="0.88" fill="#e5e6e7"/><rect x="20.84" y="190.42" width="0.64" height="0.88" fill="#e5e6e7"/><rect x="22.61" y="192.48" width="9.12" height="0.88" fill="#e5e6e7"/><rect x="20.84" y="192.48" width="0.64" height="0.88" fill="#e5e6e7"/><rect x="22.61" y="194.55" width="13.7" height="0.88" fill="#e5e6e7"/><rect x="20.84" y="194.55" width="0.64" height="0.88" fill="#e5e6e7"/><rect x="22.61" y="196.62" width="17.23" height="0.88" fill="#e5e6e7"/><rect x="20.84" y="196.62" width="0.64" height="0.88" fill="#e5e6e7"/><rect x="20.84" y="198.68" width="0.64" height="0.88" fill="#e5e6e7"/><rect x="20.84" y="200.75" width="0.64" height="0.88" fill="#e5e6e7"/><rect x="22.61" y="202.82" width="21.55" height="0.88" fill="#e5e6e7"/><rect x="20.84" y="202.82" width="0.64" height="0.88" fill="#e5e6e7"/><rect x="22.61" y="204.88" width="14.96" height="0.88" fill="#e5e6e7"/><rect x="20.84" y="204.88" width="0.64" height="0.88" fill="#e5e6e7"/><rect x="22.61" y="206.95" width="11.93" height="0.88" fill="#e5e6e7"/><rect x="20.84" y="206.95" width="0.64" height="0.88" fill="#e5e6e7"/><rect x="22.61" y="209.02" width="16.99" height="0.88" fill="#e5e6e7"/><rect x="20.84" y="209.02" width="0.64" height="0.88" fill="#e5e6e7"/><rect x="22.61" y="211.08" width="14.15" height="0.88" fill="#e5e6e7"/><rect x="20.84" y="211.08" width="0.64" height="0.88" fill="#e5e6e7"/><rect x="22.61" y="213.15" width="28.41" height="0.88" fill="#e5e6e7"/><rect x="20.84" y="213.15" width="0.64" height="0.88" fill="#e5e6e7"/><rect x="22.61" y="215.21" width="5.16" height="0.88" fill="#e5e6e7"/><rect x="20.84" y="215.21" width="0.64" height="0.88" fill="#e5e6e7"/><rect x="22.61" y="217.28" width="10.78" height="0.88" fill="#e5e6e7"/><rect x="20.84" y="217.28" width="0.64" height="0.88" fill="#e5e6e7"/><rect x="22.61" y="219.35" width="0.8" height="0.88" fill="#e5e6e7"/><rect x="20.84" y="219.35" width="0.64" height="0.88" fill="#e5e6e7"/><rect x="7.42" y="190.42" width="9.68" height="0.88" fill="#e5e6e7"/><rect x="7.42" y="192.48" width="9.68" height="0.88" fill="#e5e6e7"/><rect x="7.42" y="194.55" width="9.68" height="0.88" fill="#e5e6e7"/><rect x="7.42" y="196.62" width="9.68" height="0.88" fill="#e5e6e7"/><rect x="7.42" y="198.68" width="9.68" height="0.88" fill="#e5e6e7"/><rect x="7.42" y="200.75" width="9.68" height="0.88" fill="#e5e6e7"/><rect x="7.42" y="202.82" width="9.68" height="0.88" fill="#e5e6e7"/><rect x="7.42" y="204.88" width="9.68" height="0.88" fill="#e5e6e7"/><rect x="7.42" y="206.95" width="9.68" height="0.88" fill="#e5e6e7"/><rect x="7.42" y="209.02" width="9.68" height="0.88" fill="#e5e6e7"/><rect x="7.42" y="211.08" width="9.68" height="0.88" fill="#e5e6e7"/><rect x="7.42" y="213.15" width="9.68" height="0.88" fill="#e5e6e7"/><rect x="7.42" y="215.21" width="9.68" height="0.88" fill="#e5e6e7"/><rect x="7.42" y="217.28" width="9.68" height="0.88" fill="#e5e6e7"/><rect x="7.42" y="219.35" width="9.68" height="0.88" fill="#e5e6e7"/><rect x="48.5" y="193.64" width="37.35" height="20.1" fill="#404041"/><rect x="53.51" y="198.88" width="2.58" height="0.88" fill="#e5e6e7"/><rect x="53.51" y="200.94" width="11.21" height="0.88" fill="#e5e6e7"/><rect x="48.5" y="194.99" width="37.35" height="0.88" fill="#e5e6e7"/><rect x="53.51" y="203.01" width="9.12" height="0.88" fill="#e5e6e7"/><rect x="53.51" y="205.08" width="13.7" height="0.88" fill="#e5e6e7"/><rect x="53.51" y="207.14" width="17.23" height="0.88" fill="#e5e6e7"/><path d="M274.07,237.76h0v-1.37a1.13,1.13,0,0,0-1.13-1.13h-9.48a1.14,1.14,0,0,0-1.13,1.13v14.5a1.13,1.13,0,0,0,1.13,1.13h9.48a1.12,1.12,0,0,0,1.13-1.13v-2.72h0a5.21,5.21,0,1,0,0-10.41Zm0,9.16h0V239h0a4,4,0,1,1,0,7.91Z" fill="#404041"/><path d="M267.53,231.23h1v-7.42h-1Zm-2.74,2.17h1v-7.84h-1Zm6-7.79v7.83h1v-7.83Z" fill="#babcbe"/><path d="M92.7,247.73a18.51,18.51,0,0,1,6.17,2.76.89.89,0,0,1-.74,1.53H87.41a.75.75,0,0,1-.81-.67C86.6,248.71,89.46,247,92.7,247.73Z" fill="#404041"/><path d="M86.67,251.61H99a1,1,0,0,1-.88.41H87.41A.82.82,0,0,1,86.67,251.61Z" fill="#bebdbe" style="mix-blend-mode:darken"/><rect x="5.02" y="126.74" width="130.08" height="11.47" fill="#404041"/><path d="M120.37,113.53a11.5,11.5,0,1,1-11.5-11.5A11.5,11.5,0,0,1,120.37,113.53Z" fill="#fff7e2"/><path d="M109.51,113.53a.65.65,0,0,1-1.29,0,.65.65,0,0,1,1.29,0Z" fill="#404041"/><path d="M94.37,104.24a4.21,4.21,0,0,0,1.28,5.83l4.56-7.11A4.22,4.22,0,0,0,94.37,104.24Zm29,0a4.21,4.21,0,0,0-5.83-1.28l4.56,7.11A4.22,4.22,0,0,0,123.36,104.24Zm-2.17,9.39a12.33,12.33,0,1,0-20.65,9.07l-1.24,2.71a.5.5,0,0,0,.21.64.49.49,0,0,0,.68-.18l1.33-2.36a12.29,12.29,0,0,0,14.7,0l1.32,2.36a.5.5,0,0,0,.64.2.49.49,0,0,0,.25-.66l-1.24-2.71A12.25,12.25,0,0,0,121.19,113.63Zm-12.32,10.61a10.61,10.61,0,1,1,10.61-10.61A10.62,10.62,0,0,1,108.87,124.24Z" fill="#404041"/><rect x="108.68" y="103.76" width="0.37" height="1.6" fill="#404041"/><rect x="108.68" y="106.36" width="0.37" height="7.05" fill="#404041"/><rect x="110.52" y="112.46" width="0.37" height="4.66" transform="translate(268.53 91.82) rotate(125.68)" fill="#404041"/><rect x="117.65" y="112.73" width="0.37" height="1.6" transform="translate(231.36 -4.3) rotate(90)" fill="#404041"/><rect x="108.68" y="121.7" width="0.37" height="1.6" transform="translate(217.73 244.99) rotate(180)" fill="#404041"/><rect x="99.71" y="112.73" width="0.37" height="1.6" transform="translate(-13.63 213.43) rotate(-90)" fill="#404041"/><rect x="15.4" y="74.41" width="19.58" height="52.33" rx="0.55" ry="0.55" fill="#91b462"/><rect x="18.13" y="80.25" width="14.12" height="13.24" fill="#fff7e2"/><rect x="34.98" y="86.87" width="16.04" height="39.87" rx="0.51" ry="0.51" fill="#ef5a28"/><path d="M45.28,121A2.28,2.28,0,1,1,43,118.75,2.28,2.28,0,0,1,45.28,121Z" fill="#fff7e2"/><rect x="36.39" y="90.16" width="13.23" height="26.15" fill="#fff7e2"/><rect x="211.44" width="2" height="100.55" fill="#404041"/><path d="M167.82,115.56h89.24a47.3,47.3,0,0,0-89.24,0Z" fill="#404041"/><path d="M131,233.34H95.8a6.67,6.67,0,0,0-6.65,7.16L92,280a6.67,6.67,0,0,0,6.65,6.19h29.49a6.67,6.67,0,0,0,6.66-6.19l2.87-39.52A6.67,6.67,0,0,0,131,233.34Z" fill="#a5a7aa"/><path d="M164.84,296.9H114.57c-2.88,0-5.22,2.7-5.22,6s2.34,6,5.22,6h50.27c2.88,0,5.22-2.71,5.22-6S167.72,296.9,164.84,296.9Z" fill="#a5a7aa"/><path d="M146.54,351.61V329.5h-2.29v-7.15h8.44c2.76,0,3.07,1,3.07,3.07v3.38a1,1,0,0,0,2,0v-3.38c0-2.36-.58-5.07-5.07-5.07h-8.44v-1.78h.22v-.78A28.78,28.78,0,0,0,161,309H130.69c-7-4.05-13.84-12.58-14.24-30.32a7.44,7.44,0,0,0,4.35-6.77V247.67a7.46,7.46,0,1,0-14.92,0v24.22a7.46,7.46,0,0,0,4.57,6.88c.3,13,4,23.31,10.49,30.21h-2.21a28.78,28.78,0,0,0,16.43,8.81V329.5h-2.29v22.11H118v5.18h43.37v-5.18Z" fill="#58595b"/></g></g></g></svg>