<?xml version="1.0" encoding="UTF-8" standalone="no"?>
<!DOCTYPE svg PUBLIC "-//W3C//DTD SVG 1.1//EN" "http://www.w3.org/Graphics/SVG/1.1/DTD/svg11.dtd">
<svg width="100%" height="100%" viewBox="0 0 327 663" version="1.1" xmlns="http://www.w3.org/2000/svg" xmlns:xlink="http://www.w3.org/1999/xlink" xml:space="preserve" xmlns:serif="http://www.serif.com/" style="fill-rule:evenodd;clip-rule:evenodd;stroke-linejoin:round;stroke-miterlimit:1.41421;">
    <g transform="matrix(1,0,0,1,316.781,50.775)">
        <path d="M0,560.685C0,584.197 -19.06,603.256 -42.571,603.256L-264.892,603.256C-288.404,603.256 -307.465,584.197 -307.465,560.685L-307.465,-2.214C-307.465,-25.727 -288.404,-44.787 -264.892,-44.787L-42.571,-44.787C-19.06,-44.787 0,-25.727 0,-2.214L0,560.685ZM-40.349,-50.775L-267.401,-50.775C-293.526,-50.775 -314.705,-29.596 -314.705,-3.472L-314.705,564.158C-314.705,590.282 -293.526,611.46 -267.401,611.46L-40.349,611.46C-14.227,611.46 6.952,590.282 6.952,564.158L6.952,-3.472C6.952,-29.596 -14.227,-50.775 -40.349,-50.775" style="fill:rgb(213,214,217);fill-rule:nonzero;"/>
    </g>
    <g transform="matrix(1,0,0,1,274.464,4.7577)">
        <path d="M0,652.425L-223.797,652.425C-248.093,652.425 -267.789,632.731 -267.789,608.435L-267.789,43.991C-267.789,19.695 -248.093,0 -223.797,0L0,0C24.294,0 43.99,19.695 43.99,43.991L43.99,608.435C43.99,632.731 24.294,652.425 0,652.425" style="fill:rgb(247,247,247);fill-rule:nonzero;"/>
    </g>
    <g transform="matrix(-1,-0,0,1,1298.73,-160.296)">
        <rect x="995.019" y="243.483" width="281.937" height="497.232" style="fill:rgb(135,135,135);"/>
    </g>
    <g transform="matrix(-26.7036,-46.252,-46.252,26.7036,175.22,641.975)">
        <path d="M0.75,0.433C0.511,0.571 0.205,0.489 0.067,0.25C-0.071,0.011 0.011,-0.295 0.25,-0.433C0.489,-0.571 0.795,-0.489 0.933,-0.25C1.071,-0.011 0.989,0.295 0.75,0.433ZM0.719,0.379C0.928,0.258 1,-0.009 0.879,-0.219C0.758,-0.428 0.491,-0.5 0.281,-0.379C0.072,-0.258 0,0.009 0.121,0.219C0.242,0.428 0.509,0.5 0.719,0.379Z" style="fill:url(#_Linear1);fill-rule:nonzero;"/>
    </g>
    <g transform="matrix(1,0,0,1,166.874,22.2794)">
        <path d="M0,-0.001C0,2.304 -1.869,4.171 -4.172,4.171C-6.477,4.171 -8.344,2.304 -8.344,-0.001C-8.344,-2.305 -6.477,-4.172 -4.172,-4.172C-1.869,-4.172 0,-2.305 0,-0.001" style="fill:rgb(60,62,66);fill-rule:nonzero;"/>
    </g>
    <g transform="matrix(1,0,0,1,118.48,42.3033)">
        <path d="M0,0C0,3.226 -2.614,5.84 -5.841,5.84C-9.067,5.84 -11.682,3.226 -11.682,0C-11.682,-3.226 -9.067,-5.84 -5.841,-5.84C-2.614,-5.84 0,-3.226 0,0" style="fill:rgb(60,62,66);fill-rule:nonzero;"/>
    </g>
    <g transform="matrix(1,0,0,1,185.092,38.1312)">
        <path d="M0,6.675L-44.847,6.675C-46.689,6.675 -48.185,5.181 -48.185,3.338C-48.185,1.495 -46.689,0 -44.847,0L0,0C1.846,0 3.338,1.495 3.338,3.338C3.338,5.181 1.846,6.675 0,6.675" style="fill:rgb(60,62,66);fill-rule:nonzero;"/>
    </g>
    <g transform="matrix(1,0,0,1,322.064,186.898)">
        <path d="M0,-43.886L0,0C0,0.784 0.637,1.419 1.42,1.419L3.313,1.419C4.096,1.419 4.729,0.784 4.729,0L4.729,-43.886C4.729,-44.669 4.096,-45.305 3.313,-45.305L1.42,-45.305C0.637,-45.305 0,-44.669 0,-43.886" style="fill:rgb(213,214,217);fill-rule:nonzero;"/>
    </g>
    <g transform="matrix(1,0,0,1,0.2783,110.136)">
        <path d="M0,-25.529L0,0C0,0.784 0.634,1.42 1.417,1.42L3.31,1.42C4.093,1.42 4.729,0.784 4.729,0L4.729,-25.529C4.729,-26.313 4.093,-26.949 3.31,-26.949L1.417,-26.949C0.634,-26.949 0,-26.313 0,-25.529" style="fill:rgb(213,214,217);fill-rule:nonzero;"/>
    </g>
    <g transform="matrix(1,0,0,1,0,188.567)">
        <path d="M0,-45.555L0,-0.001C0,0.783 0.636,1.419 1.42,1.419L3.313,1.419C4.096,1.419 4.729,0.783 4.729,-0.001L4.729,-45.555C4.729,-46.338 4.096,-46.974 3.313,-46.974L1.42,-46.974C0.636,-46.974 0,-46.338 0,-45.555" style="fill:rgb(213,214,217);fill-rule:nonzero;"/>
    </g>
    <g transform="matrix(1,0,0,1,0.2783,248.642)">
        <path d="M0,-45.555L0,-0.001C0,0.782 0.634,1.419 1.417,1.419L3.31,1.419C4.093,1.419 4.729,0.782 4.729,-0.001L4.729,-45.555C4.729,-46.339 4.093,-46.974 3.31,-46.974L1.417,-46.974C0.634,-46.974 0,-46.339 0,-45.555" style="fill:rgb(213,214,217);fill-rule:nonzero;"/>
    </g>
    <g transform="matrix(-1,-0,0,1,981.591,-711.032)">
        <rect x="974.916" y="762.513" width="5.006" height="9.908" style="fill:rgb(188,188,188);"/>
    </g>
    <g transform="matrix(-1,-0,0,1,1615.71,-711.032)">
        <rect x="1291.97" y="762.513" width="5.006" height="9.908" style="fill:rgb(188,188,188);"/>
    </g>
    <g transform="matrix(-1,-0,0,1,981.591,390.327)">
        <rect x="974.916" y="211.833" width="5.006" height="9.909" style="fill:rgb(188,188,188);"/>
    </g>
    <g transform="matrix(-1,-0,0,1,1615.71,390.327)">
        <rect x="1291.97" y="211.833" width="5.006" height="9.909" style="fill:rgb(188,188,188);"/>
    </g>
    <g transform="matrix(1,0,0,1,303.692,83.1868)">
        <path d="M0,429.783L0,0L-281.574,0L0,429.783Z" style="fill:rgb(140,140,140);fill-rule:nonzero;"/>
    </g>
    <defs>
        <linearGradient id="_Linear1" x1="0" y1="0" x2="1" y2="0" gradientUnits="userSpaceOnUse" gradientTransform="matrix(1,0,0,-1,0,-1.63549e-06)"><stop offset="0" style="stop-color:rgb(158,159,161);stop-opacity:1"/><stop offset="0.34" style="stop-color:rgb(213,214,217);stop-opacity:1"/><stop offset="0.64" style="stop-color:rgb(213,214,217);stop-opacity:1"/><stop offset="1" style="stop-color:rgb(158,159,161);stop-opacity:1"/></linearGradient>
    </defs>
</svg>
