<?xml version="1.0" encoding="UTF-8" standalone="no"?>
<!DOCTYPE svg PUBLIC "-//W3C//DTD SVG 1.1//EN" "http://www.w3.org/Graphics/SVG/1.1/DTD/svg11.dtd">
<svg width="100%" height="100%" viewBox="0 0 3334 2500" version="1.1" xmlns="http://www.w3.org/2000/svg" xmlns:xlink="http://www.w3.org/1999/xlink" xml:space="preserve" xmlns:serif="http://www.serif.com/" style="fill-rule:evenodd;clip-rule:evenodd;stroke-linejoin:round;stroke-miterlimit:1.41421;">
    <g transform="matrix(4.16667,0,0,4.16667,0,0)">
        <path d="M711.57,338.331C711.054,338.331 710.636,337.913 710.636,337.396L710.636,328.883C710.636,328.366 711.054,327.948 711.57,327.948C712.088,327.948 712.506,328.366 712.506,328.883L712.506,337.396C712.506,337.913 712.088,338.331 711.57,338.331Z" style="fill:rgb(191,215,204);fill-rule:nonzero;"/>
        <path d="M704.088,340.873C703.849,340.873 703.609,340.782 703.427,340.6L697.407,334.581C697.042,334.215 697.042,333.623 697.407,333.258C697.772,332.893 698.364,332.893 698.729,333.258L704.749,339.277C705.114,339.643 705.114,340.234 704.749,340.6C704.566,340.782 704.327,340.873 704.088,340.873Z" style="fill:rgb(191,215,204);fill-rule:nonzero;"/>
        <path d="M700.595,347.963L692.082,347.963C691.565,347.963 691.146,347.545 691.146,347.028C691.146,346.511 691.565,346.093 692.082,346.093L700.595,346.093C701.111,346.093 701.529,346.511 701.529,347.028C701.529,347.545 701.111,347.963 700.595,347.963Z" style="fill:rgb(191,215,204);fill-rule:nonzero;"/>
        <path d="M697.118,361.465C696.879,361.465 696.64,361.374 696.457,361.191C696.092,360.826 696.092,360.234 696.457,359.869L702.477,353.85C702.842,353.484 703.434,353.484 703.799,353.85C704.164,354.215 704.164,354.807 703.799,355.172L697.779,361.191C697.597,361.374 697.357,361.465 697.118,361.465Z" style="fill:rgb(191,215,204);fill-rule:nonzero;"/>
        <path d="M710.227,367.451C709.71,367.451 709.291,367.033 709.291,366.516L709.291,358.004C709.291,357.487 709.71,357.069 710.227,357.069C710.743,357.069 711.162,357.487 711.162,358.004L711.162,366.516C711.162,367.033 710.743,367.451 710.227,367.451Z" style="fill:rgb(191,215,204);fill-rule:nonzero;"/>
        <path d="M723.729,362.416C723.489,362.416 723.25,362.324 723.067,362.142L717.049,356.122C716.684,355.757 716.684,355.165 717.049,354.8C717.414,354.435 718.006,354.435 718.371,354.8L724.39,360.819C724.755,361.185 724.755,361.776 724.39,362.142C724.207,362.324 723.968,362.416 723.729,362.416Z" style="fill:rgb(191,215,204);fill-rule:nonzero;"/>
        <path d="M729.716,349.308L721.203,349.308C720.687,349.308 720.268,348.889 720.268,348.372C720.268,347.855 720.687,347.438 721.203,347.438L729.716,347.438C730.232,347.438 730.65,347.855 730.65,348.372C730.65,348.889 730.232,349.308 729.716,349.308Z" style="fill:rgb(191,215,204);fill-rule:nonzero;"/>
        <path d="M718.66,341.824C718.421,341.824 718.182,341.732 717.999,341.55C717.634,341.185 717.634,340.593 717.999,340.228L724.019,334.209C724.384,333.844 724.976,333.844 725.341,334.209C725.706,334.574 725.706,335.166 725.341,335.531L719.322,341.55C719.14,341.732 718.899,341.824 718.66,341.824Z" style="fill:rgb(191,215,204);fill-rule:nonzero;"/>
        <path d="M115.474,353.046C114.957,353.046 114.539,352.628 114.539,352.111L114.539,343.599C114.539,343.082 114.957,342.663 115.474,342.663C115.991,342.663 116.409,343.082 116.409,343.599L116.409,352.111C116.409,352.628 115.991,353.046 115.474,353.046Z" style="fill:rgb(191,215,204);fill-rule:nonzero;"/>
        <path d="M107.991,355.589C107.752,355.589 107.513,355.497 107.33,355.314L101.311,349.296C100.945,348.931 100.945,348.339 101.311,347.974C101.676,347.608 102.268,347.608 102.633,347.974L108.652,353.992C109.018,354.357 109.018,354.949 108.652,355.314C108.47,355.497 108.23,355.589 107.991,355.589Z" style="fill:rgb(191,215,204);fill-rule:nonzero;"/>
        <path d="M104.498,362.679L95.984,362.679C95.467,362.679 95.049,362.26 95.049,361.743C95.049,361.227 95.467,360.809 95.984,360.809L104.498,360.809C105.014,360.809 105.433,361.227 105.433,361.743C105.433,362.26 105.014,362.679 104.498,362.679Z" style="fill:rgb(191,215,204);fill-rule:nonzero;"/>
        <path d="M101.021,376.181C100.782,376.181 100.542,376.089 100.36,375.906C99.994,375.541 99.994,374.949 100.36,374.584L106.379,368.564C106.745,368.199 107.336,368.199 107.702,368.564C108.067,368.93 108.067,369.521 107.702,369.887L101.682,375.906C101.5,376.089 101.26,376.181 101.021,376.181Z" style="fill:rgb(191,215,204);fill-rule:nonzero;"/>
        <path d="M114.129,382.166C113.613,382.166 113.194,381.748 113.194,381.231L113.194,372.72C113.194,372.203 113.613,371.784 114.129,371.784C114.646,371.784 115.064,372.203 115.064,372.72L115.064,381.231C115.064,381.748 114.646,382.166 114.129,382.166Z" style="fill:rgb(191,215,204);fill-rule:nonzero;"/>
        <path d="M127.632,377.131C127.393,377.131 127.153,377.04 126.971,376.857L120.952,370.838C120.586,370.473 120.586,369.881 120.952,369.516C121.317,369.15 121.909,369.15 122.274,369.516L128.293,375.535C128.658,375.9 128.658,376.492 128.293,376.857C128.11,377.04 127.871,377.131 127.632,377.131Z" style="fill:rgb(191,215,204);fill-rule:nonzero;"/>
        <path d="M133.618,364.022L125.106,364.022C124.589,364.022 124.171,363.604 124.171,363.088C124.171,362.57 124.589,362.152 125.106,362.152L133.618,362.152C134.135,362.152 134.554,362.57 134.554,363.088C134.554,363.604 134.135,364.022 133.618,364.022Z" style="fill:rgb(191,215,204);fill-rule:nonzero;"/>
        <path d="M122.563,356.539C122.324,356.539 122.085,356.448 121.902,356.266C121.537,355.899 121.537,355.309 121.902,354.943L127.921,348.924C128.287,348.559 128.878,348.559 129.243,348.924C129.608,349.289 129.608,349.881 129.243,350.246L123.225,356.266C123.042,356.448 122.803,356.539 122.563,356.539Z" style="fill:rgb(191,215,204);fill-rule:nonzero;"/>
        <path d="M670.804,78.719C670.287,78.719 669.868,78.301 669.868,77.784L669.868,69.271C669.868,68.754 670.287,68.336 670.804,68.336C671.32,68.336 671.739,68.754 671.739,69.271L671.739,77.784C671.739,78.301 671.32,78.719 670.804,78.719Z" style="fill:rgb(191,215,204);fill-rule:nonzero;"/>
        <path d="M663.321,81.261C663.082,81.261 662.843,81.17 662.66,80.987L656.641,74.969C656.275,74.603 656.275,74.012 656.641,73.646C657.006,73.281 657.598,73.281 657.963,73.646L663.982,79.665C664.348,80.03 664.348,80.622 663.982,80.987C663.8,81.17 663.561,81.261 663.321,81.261Z" style="fill:rgb(191,215,204);fill-rule:nonzero;"/>
        <path d="M659.827,88.351L651.314,88.351C650.798,88.351 650.38,87.933 650.38,87.416C650.38,86.899 650.798,86.481 651.314,86.481L659.827,86.481C660.344,86.481 660.763,86.899 660.763,87.416C660.763,87.933 660.344,88.351 659.827,88.351Z" style="fill:rgb(191,215,204);fill-rule:nonzero;"/>
        <path d="M656.351,101.853C656.111,101.853 655.872,101.761 655.689,101.579C655.324,101.213 655.324,100.622 655.689,100.257L661.709,94.237C662.074,93.872 662.666,93.872 663.031,94.237C663.397,94.603 663.397,95.194 663.031,95.56L657.012,101.579C656.829,101.761 656.59,101.853 656.351,101.853Z" style="fill:rgb(191,215,204);fill-rule:nonzero;"/>
        <path d="M669.46,107.839C668.942,107.839 668.524,107.42 668.524,106.904L668.524,98.393C668.524,97.875 668.942,97.457 669.46,97.457C669.977,97.457 670.395,97.875 670.395,98.393L670.395,106.904C670.395,107.42 669.977,107.839 669.46,107.839Z" style="fill:rgb(191,215,204);fill-rule:nonzero;"/>
        <path d="M682.962,102.803C682.723,102.803 682.483,102.712 682.301,102.529L676.282,96.51C675.916,96.145 675.916,95.553 676.282,95.188C676.647,94.823 677.239,94.823 677.604,95.188L683.623,101.207C683.988,101.572 683.988,102.164 683.623,102.529C683.44,102.712 683.201,102.803 682.962,102.803Z" style="fill:rgb(191,215,204);fill-rule:nonzero;"/>
        <path d="M688.948,89.695L680.436,89.695C679.919,89.695 679.501,89.277 679.501,88.76C679.501,88.243 679.919,87.825 680.436,87.825L688.948,87.825C689.465,87.825 689.884,88.243 689.884,88.76C689.884,89.277 689.465,89.695 688.948,89.695Z" style="fill:rgb(191,215,204);fill-rule:nonzero;"/>
        <path d="M677.894,82.212C677.654,82.212 677.415,82.121 677.232,81.938C676.867,81.573 676.867,80.981 677.232,80.616L683.251,74.597C683.616,74.231 684.208,74.231 684.573,74.597C684.938,74.962 684.938,75.554 684.573,75.919L678.555,81.938C678.372,82.121 678.133,82.212 677.894,82.212Z" style="fill:rgb(191,215,204);fill-rule:nonzero;"/>
        <path d="M363.226,142.227C362.709,142.227 362.291,141.809 362.291,141.292L362.291,121.202C362.291,120.685 362.709,120.267 363.226,120.267C363.743,120.267 364.161,120.685 364.161,121.202L364.161,141.292C364.161,141.809 363.743,142.227 363.226,142.227Z" style="fill:rgb(191,215,204);fill-rule:nonzero;"/>
        <path d="M373.271,132.182L353.182,132.182C352.666,132.182 352.247,131.764 352.247,131.247C352.247,130.73 352.666,130.312 353.182,130.312L373.271,130.312C373.788,130.312 374.206,130.73 374.206,131.247C374.206,131.764 373.788,132.182 373.271,132.182Z" style="fill:rgb(191,215,204);fill-rule:nonzero;"/>
        <path d="M696.183,511.248C695.666,511.248 695.247,510.83 695.247,510.313L695.247,490.224C695.247,489.706 695.666,489.288 696.183,489.288C696.699,489.288 697.117,489.706 697.117,490.224L697.117,510.313C697.117,510.83 696.699,511.248 696.183,511.248Z" style="fill:rgb(191,215,204);fill-rule:nonzero;"/>
        <path d="M706.228,501.203L686.139,501.203C685.622,501.203 685.203,500.785 685.203,500.269C685.203,499.751 685.622,499.333 686.139,499.333L706.228,499.333C706.744,499.333 707.162,499.751 707.162,500.269C707.162,500.785 706.744,501.203 706.228,501.203Z" style="fill:rgb(191,215,204);fill-rule:nonzero;"/>
        <path d="M544.566,246.932C541.745,246.932 539.45,249.227 539.45,252.047C539.45,254.868 541.745,257.163 544.566,257.163C547.387,257.163 549.682,254.868 549.682,252.047C549.682,249.227 547.387,246.932 544.566,246.932ZM544.566,259.033C540.714,259.033 537.58,255.899 537.58,252.047C537.58,248.196 540.714,245.062 544.566,245.062C548.418,245.062 551.552,248.196 551.552,252.047C551.552,255.899 548.418,259.033 544.566,259.033Z" style="fill:rgb(191,215,204);fill-rule:nonzero;"/>
        <path d="M78.562,195.931C75.741,195.931 73.446,198.225 73.446,201.046C73.446,203.867 75.741,206.162 78.562,206.162C81.383,206.162 83.677,203.867 83.677,201.046C83.677,198.225 81.383,195.931 78.562,195.931ZM78.562,208.032C74.71,208.032 71.576,204.898 71.576,201.046C71.576,197.194 74.71,194.06 78.562,194.06C82.414,194.06 85.548,197.194 85.548,201.046C85.548,204.898 82.414,208.032 78.562,208.032Z" style="fill:rgb(191,215,204);fill-rule:nonzero;"/>
        <path d="M159.292,64.653C159.292,63.876 159.918,63.241 160.694,63.241C161.471,63.241 162.097,63.867 162.097,64.644C162.097,65.41 161.471,66.046 160.704,66.046C159.927,66.046 159.292,65.418 159.292,64.653ZM167.203,68.72C166.66,68.168 166.651,67.28 167.203,66.728C167.745,66.186 168.634,66.177 169.185,66.728C169.728,67.27 169.737,68.159 169.194,68.71C168.914,68.982 168.559,69.122 168.193,69.122C167.838,69.122 167.483,68.991 167.203,68.72ZM152.222,68.757C151.681,68.215 151.67,67.326 152.222,66.775C152.765,66.223 153.653,66.223 154.205,66.775C154.757,67.317 154.757,68.206 154.205,68.757C153.934,69.028 153.578,69.169 153.214,69.169C152.858,69.169 152.503,69.038 152.222,68.757ZM169.924,75.237L169.924,75.2C169.924,74.424 170.541,73.797 171.317,73.797C172.093,73.788 172.72,74.414 172.729,75.19L172.729,75.237C172.729,76.013 172.103,76.65 171.327,76.65C170.55,76.65 169.924,76.013 169.924,75.237ZM148.726,75.266C148.726,74.489 149.352,73.863 150.128,73.863C150.904,73.863 151.531,74.489 151.531,75.256C151.531,76.033 150.904,76.668 150.137,76.668C149.361,76.668 148.726,76.041 148.726,75.266ZM167.231,83.719C166.688,83.176 166.688,82.288 167.231,81.736C167.783,81.194 168.671,81.194 169.213,81.736C169.765,82.288 169.765,83.176 169.213,83.719C168.942,83.999 168.586,84.13 168.222,84.13C167.867,84.13 167.511,83.999 167.231,83.719ZM152.259,83.738L152.25,83.738C151.708,83.195 151.708,82.307 152.25,81.755C152.802,81.204 153.69,81.204 154.233,81.755C154.785,82.298 154.785,83.186 154.242,83.738C153.962,84.009 153.606,84.149 153.242,84.149C152.887,84.149 152.531,84.009 152.259,83.738ZM159.338,85.842C159.338,85.065 159.965,84.439 160.741,84.439C161.508,84.439 162.144,85.065 162.144,85.842C162.144,86.608 161.517,87.245 160.741,87.245C159.965,87.245 159.338,86.618 159.338,85.842ZM160.741,87.245" style="fill:rgb(191,215,204);fill-rule:nonzero;"/>
        <path d="M646.721,210.011C646.721,209.235 647.348,208.599 648.124,208.599C648.899,208.599 649.526,209.226 649.526,210.001C649.526,210.768 648.899,211.404 648.133,211.404C647.356,211.404 646.721,210.777 646.721,210.011ZM654.632,214.078C654.09,213.526 654.08,212.638 654.632,212.086C655.174,211.544 656.063,211.535 656.614,212.086C657.156,212.629 657.166,213.518 656.623,214.069C656.343,214.34 655.987,214.48 655.623,214.48C655.268,214.48 654.912,214.349 654.632,214.078ZM639.651,214.116C639.109,213.573 639.1,212.685 639.651,212.133C640.193,211.582 641.082,211.582 641.634,212.133C642.187,212.675 642.187,213.564 641.634,214.116C641.362,214.387 641.007,214.527 640.643,214.527C640.288,214.527 639.933,214.396 639.651,214.116ZM657.354,220.595L657.354,220.558C657.354,219.783 657.971,219.155 658.746,219.155C659.521,219.146 660.149,219.772 660.158,220.549L660.158,220.595C660.158,221.372 659.532,222.008 658.756,222.008C657.979,222.008 657.354,221.372 657.354,220.595ZM636.154,220.624C636.154,219.848 636.781,219.221 637.558,219.221C638.334,219.221 638.96,219.848 638.96,220.615C638.96,221.391 638.334,222.026 637.566,222.026C636.79,222.026 636.154,221.4 636.154,220.624ZM654.66,229.077C654.118,228.535 654.118,227.646 654.66,227.095C655.212,226.552 656.101,226.552 656.643,227.095C657.194,227.646 657.194,228.535 656.643,229.077C656.371,229.357 656.016,229.489 655.651,229.489C655.296,229.489 654.94,229.357 654.66,229.077ZM639.688,229.096L639.68,229.096C639.137,228.554 639.137,227.666 639.68,227.114C640.231,226.562 641.119,226.562 641.662,227.114C642.214,227.656 642.214,228.543 641.671,229.096C641.391,229.367 641.035,229.507 640.671,229.507C640.316,229.507 639.96,229.367 639.688,229.096ZM646.768,231.2C646.768,230.424 647.394,229.797 648.17,229.797C648.938,229.797 649.573,230.424 649.573,231.2C649.573,231.966 648.946,232.603 648.17,232.603C647.394,232.603 646.768,231.976 646.768,231.2ZM648.17,232.603" style="fill:rgb(191,215,204);fill-rule:nonzero;"/>
        <path d="M77.127,501.806C77.127,501.029 77.753,500.395 78.529,500.395C79.305,500.395 79.932,501.021 79.932,501.797C79.932,502.563 79.305,503.199 78.538,503.199C77.762,503.199 77.127,502.572 77.127,501.806ZM85.037,505.873C84.495,505.321 84.486,504.433 85.037,503.882C85.58,503.339 86.468,503.33 87.02,503.882C87.562,504.424 87.571,505.313 87.029,505.864C86.749,506.135 86.393,506.274 86.028,506.274C85.673,506.274 85.317,506.145 85.037,505.873ZM70.057,505.91C69.515,505.368 69.505,504.479 70.057,503.928C70.599,503.377 71.487,503.377 72.039,503.928C72.592,504.471 72.592,505.359 72.039,505.91C71.768,506.182 71.413,506.322 71.048,506.322C70.693,506.322 70.338,506.19 70.057,505.91ZM87.758,512.391L87.758,512.354C87.758,511.578 88.376,510.95 89.152,510.95C89.927,510.941 90.555,511.567 90.564,512.344L90.564,512.391C90.564,513.167 89.937,513.803 89.161,513.803C88.385,513.803 87.758,513.167 87.758,512.391ZM66.56,512.419C66.56,511.643 67.187,511.016 67.963,511.016C68.739,511.016 69.365,511.643 69.365,512.409C69.365,513.186 68.739,513.821 67.972,513.821C67.196,513.821 66.56,513.195 66.56,512.419ZM85.065,520.872C84.523,520.329 84.523,519.44 85.065,518.89C85.617,518.347 86.505,518.347 87.048,518.89C87.6,519.44 87.6,520.329 87.048,520.872C86.777,521.152 86.42,521.284 86.056,521.284C85.701,521.284 85.346,521.152 85.065,520.872ZM70.094,520.891L70.085,520.891C69.543,520.349 69.543,519.461 70.085,518.909C70.637,518.357 71.525,518.357 72.067,518.909C72.619,519.451 72.619,520.339 72.077,520.891C71.796,521.162 71.441,521.302 71.077,521.302C70.721,521.302 70.365,521.162 70.094,520.891ZM77.173,522.995C77.173,522.219 77.799,521.594 78.576,521.594C79.343,521.594 79.978,522.219 79.978,522.995C79.978,523.761 79.352,524.397 78.576,524.397C77.799,524.397 77.173,523.771 77.173,522.995ZM78.576,524.397" style="fill:rgb(191,215,204);fill-rule:nonzero;"/>
        <path d="M349.789,392.023C349.789,391.247 350.416,390.611 351.192,390.611C351.968,390.611 352.595,391.238 352.595,392.015C352.595,392.78 351.968,393.417 351.201,393.417C350.425,393.417 349.789,392.789 349.789,392.023ZM357.7,396.091C357.158,395.539 357.148,394.65 357.7,394.099C358.243,393.557 359.131,393.548 359.683,394.099C360.225,394.642 360.234,395.53 359.692,396.081C359.412,396.353 359.056,396.492 358.691,396.492C358.335,396.492 357.98,396.361 357.7,396.091ZM342.72,396.128C342.178,395.586 342.168,394.697 342.72,394.146C343.262,393.594 344.15,393.594 344.702,394.146C345.254,394.688 345.254,395.576 344.702,396.128C344.431,396.399 344.076,396.54 343.711,396.54C343.356,396.54 343.001,396.408 342.72,396.128ZM360.421,402.607L360.421,402.57C360.421,401.795 361.039,401.168 361.815,401.168C362.59,401.159 363.217,401.785 363.227,402.562L363.227,402.607C363.227,403.384 362.6,404.021 361.824,404.021C361.048,404.021 360.421,403.384 360.421,402.607ZM339.223,402.637C339.223,401.86 339.85,401.233 340.625,401.233C341.402,401.233 342.028,401.86 342.028,402.627C342.028,403.403 341.402,404.039 340.635,404.039C339.858,404.039 339.223,403.412 339.223,402.637ZM357.729,411.09C357.186,410.547 357.186,409.658 357.729,409.107C358.28,408.564 359.168,408.564 359.711,409.107C360.263,409.658 360.263,410.547 359.711,411.09C359.439,411.37 359.083,411.501 358.719,411.501C358.364,411.501 358.009,411.37 357.729,411.09ZM342.757,411.108L342.748,411.108C342.206,410.566 342.206,409.678 342.748,409.126C343.299,408.574 344.188,408.574 344.73,409.126C345.282,409.669 345.282,410.557 344.739,411.108C344.459,411.38 344.104,411.52 343.739,411.52C343.384,411.52 343.028,411.38 342.757,411.108ZM349.836,413.213C349.836,412.437 350.462,411.81 351.238,411.81C352.005,411.81 352.641,412.437 352.641,413.213C352.641,413.979 352.015,414.615 351.238,414.615C350.462,414.615 349.836,413.989 349.836,413.213ZM351.238,414.615" style="fill:rgb(191,215,204);fill-rule:nonzero;"/>
        <path d="M409.786,71.935L409.731,71.934C406.125,71.724 402.454,71.618 398.821,71.618L398.522,71.619C398.006,71.619 397.587,71.2 397.587,70.684C397.587,70.167 398.006,69.748 398.522,69.748L398.817,69.747C402.49,69.747 406.197,69.855 409.839,70.066C410.354,70.096 410.748,70.538 410.719,71.054C410.69,71.551 410.277,71.935 409.786,71.935ZM376.036,72.995C375.57,72.995 375.167,72.647 375.109,72.173C375.047,71.66 375.412,71.194 375.924,71.132C379.645,70.679 383.439,70.332 387.201,70.102C387.716,70.069 388.16,70.462 388.191,70.978C388.223,71.493 387.83,71.936 387.315,71.968C383.59,72.196 379.833,72.539 376.151,72.988L376.036,72.995ZM432.155,74.587L431.988,74.572C428.328,73.912 424.597,73.355 420.9,72.917C420.387,72.856 420.021,72.391 420.081,71.878C420.142,71.366 420.612,71.003 421.119,71.059C424.854,71.502 428.623,72.064 432.32,72.731C432.828,72.823 433.166,73.309 433.074,73.818C432.992,74.27 432.599,74.587 432.155,74.587ZM353.882,77.065C353.462,77.065 353.081,76.78 352.975,76.354C352.851,75.853 353.158,75.346 353.658,75.222C357.303,74.321 361.028,73.52 364.729,72.84C365.241,72.747 365.725,73.083 365.818,73.59C365.911,74.098 365.575,74.586 365.067,74.679C361.403,75.352 357.716,76.146 354.108,77.038L353.882,77.065ZM454.037,79.924C453.946,79.924 453.853,79.91 453.761,79.882C450.204,78.781 446.567,77.777 442.954,76.896C442.453,76.773 442.146,76.268 442.267,75.766C442.39,75.263 442.896,74.96 443.398,75.078C447.047,75.969 450.72,76.983 454.314,78.095C454.807,78.248 455.083,78.771 454.931,79.265C454.807,79.666 454.437,79.924 454.037,79.924ZM332.385,83.793C332.008,83.793 331.653,83.562 331.511,83.189C331.327,82.707 331.569,82.167 332.052,81.983C335.562,80.645 339.162,79.397 342.753,78.273C343.246,78.122 343.77,78.393 343.924,78.886C344.079,79.379 343.804,79.904 343.311,80.058C339.757,81.171 336.193,82.406 332.718,83.73C332.608,83.772 332.496,83.793 332.385,83.793ZM475.148,87.893C475.021,87.893 474.891,87.867 474.767,87.811C471.37,86.286 467.878,84.845 464.387,83.527C463.903,83.344 463.659,82.805 463.842,82.321C464.024,81.839 464.564,81.593 465.048,81.777C468.574,83.109 472.102,84.565 475.531,86.105C476.003,86.316 476.214,86.87 476.002,87.341C475.847,87.687 475.505,87.893 475.148,87.893ZM311.892,93.062C311.556,93.062 311.231,92.881 311.064,92.563C310.823,92.106 310.998,91.54 311.455,91.3C314.775,89.548 318.193,87.875 321.614,86.328C322.084,86.115 322.639,86.324 322.851,86.794C323.064,87.265 322.856,87.819 322.385,88.032C318.998,89.564 315.614,91.22 312.327,92.954C312.188,93.027 312.039,93.062 311.892,93.062ZM495.127,98.359C494.962,98.359 494.795,98.316 494.645,98.224C491.451,96.297 488.16,94.444 484.864,92.717C484.406,92.477 484.229,91.912 484.47,91.454C484.709,90.996 485.276,90.82 485.731,91.06C489.062,92.805 492.385,94.676 495.61,96.624C496.053,96.891 496.194,97.465 495.928,97.907C495.752,98.199 495.443,98.359 495.127,98.359ZM292.653,104.745C292.357,104.745 292.065,104.604 291.884,104.343C291.59,103.918 291.696,103.335 292.12,103.042C295.205,100.904 298.398,98.831 301.611,96.878C302.053,96.61 302.628,96.751 302.895,97.192C303.164,97.633 303.023,98.208 302.582,98.476C299.4,100.409 296.239,102.462 293.185,104.579C293.023,104.691 292.837,104.745 292.653,104.745ZM513.688,111.152C513.486,111.152 513.284,111.087 513.112,110.953C510.174,108.656 507.131,106.42 504.071,104.31C503.646,104.017 503.539,103.435 503.832,103.01C504.125,102.585 504.706,102.477 505.132,102.771C508.223,104.901 511.296,107.16 514.265,109.48C514.671,109.798 514.742,110.386 514.425,110.792C514.241,111.029 513.966,111.152 513.688,111.152ZM274.949,118.663C274.691,118.663 274.435,118.557 274.25,118.349C273.907,117.963 273.941,117.372 274.328,117.029C277.139,114.531 280.062,112.087 283.014,109.767C283.42,109.448 284.008,109.518 284.327,109.924C284.646,110.331 284.576,110.918 284.17,111.237C281.246,113.535 278.354,115.954 275.569,118.427C275.392,118.585 275.169,118.663 274.949,118.663ZM530.57,126.075C530.331,126.075 530.093,125.984 529.91,125.802C527.275,123.176 524.525,120.593 521.734,118.126C521.348,117.784 521.31,117.193 521.653,116.807C521.995,116.42 522.586,116.384 522.973,116.725C525.791,119.216 528.569,121.825 531.23,124.478C531.596,124.843 531.597,125.435 531.232,125.8C531.05,125.983 530.811,126.075 530.57,126.075ZM259.032,134.608C258.812,134.608 258.591,134.531 258.414,134.374C258.027,134.031 257.991,133.44 258.333,133.054C260.825,130.238 263.435,127.462 266.09,124.801C266.455,124.435 267.047,124.434 267.413,124.799C267.778,125.164 267.779,125.756 267.415,126.122C264.785,128.756 262.2,131.506 259.734,134.293C259.549,134.502 259.292,134.608 259.032,134.608ZM545.54,142.908C545.264,142.908 544.988,142.786 544.804,142.551C542.504,139.628 540.084,136.736 537.61,133.954C537.267,133.568 537.301,132.977 537.688,132.634C538.073,132.291 538.664,132.325 539.007,132.711C541.506,135.521 543.95,138.442 546.274,141.395C546.593,141.8 546.523,142.388 546.117,142.708C545.946,142.842 545.741,142.908 545.54,142.908ZM245.138,152.353C244.955,152.353 244.77,152.3 244.607,152.188C244.183,151.895 244.076,151.312 244.369,150.888C246.507,147.79 248.766,144.719 251.084,141.759C251.402,141.353 251.99,141.281 252.397,141.6C252.803,141.918 252.875,142.505 252.556,142.913C250.262,145.842 248.024,148.883 245.908,151.95C245.727,152.213 245.435,152.353 245.138,152.353ZM558.374,161.405C558.059,161.405 557.751,161.246 557.574,160.956C555.643,157.779 553.588,154.619 551.467,151.563C551.172,151.138 551.278,150.556 551.702,150.261C552.127,149.966 552.708,150.072 553.003,150.496C555.145,153.584 557.221,156.776 559.173,159.984C559.441,160.426 559.301,161.001 558.859,161.27C558.708,161.362 558.54,161.405 558.374,161.405ZM233.474,171.651C233.328,171.651 233.179,171.617 233.041,171.544C232.583,171.304 232.407,170.739 232.647,170.282C234.394,166.953 236.267,163.63 238.215,160.407C238.483,159.964 239.057,159.823 239.499,160.09C239.941,160.357 240.083,160.932 239.816,161.373C237.887,164.565 236.032,167.854 234.303,171.15C234.136,171.469 233.811,171.651 233.474,171.651ZM568.882,181.303C568.525,181.303 568.185,181.099 568.028,180.753C566.494,177.367 564.837,173.984 563.102,170.698C562.86,170.242 563.035,169.676 563.492,169.435C563.948,169.193 564.515,169.369 564.755,169.825C566.508,173.144 568.183,176.561 569.732,179.982C569.945,180.452 569.737,181.006 569.267,181.22C569.141,181.276 569.01,181.303 568.882,181.303ZM224.228,192.228C224.118,192.228 224.006,192.208 223.897,192.166C223.414,191.983 223.17,191.444 223.353,190.961C224.685,187.44 226.143,183.913 227.686,180.478C227.898,180.006 228.451,179.797 228.923,180.008C229.394,180.22 229.604,180.773 229.392,181.244C227.864,184.645 226.421,188.137 225.103,191.623C224.961,191.997 224.605,192.228 224.228,192.228ZM576.906,202.332C576.508,202.332 576.14,202.076 576.015,201.676C574.903,198.13 573.665,194.567 572.336,191.084C572.152,190.603 572.394,190.062 572.877,189.878C573.355,189.693 573.899,189.935 574.084,190.417C575.426,193.935 576.676,197.535 577.799,201.117C577.953,201.61 577.679,202.134 577.185,202.289C577.093,202.318 576.999,202.332 576.906,202.332ZM217.552,213.764L217.329,213.737C216.828,213.615 216.52,213.109 216.643,212.607C217.536,208.954 218.553,205.282 219.665,201.693C219.818,201.199 220.342,200.923 220.835,201.076C221.329,201.23 221.604,201.753 221.451,202.246C220.35,205.8 219.343,209.434 218.46,213.051C218.355,213.478 217.973,213.764 217.552,213.764ZM582.325,224.195C581.882,224.195 581.489,223.88 581.406,223.43C580.732,219.768 579.936,216.081 579.041,212.471C578.917,211.97 579.223,211.462 579.725,211.338C580.22,211.212 580.732,211.519 580.856,212.021C581.76,215.668 582.564,219.392 583.245,223.091C583.34,223.599 583.004,224.086 582.496,224.18L582.325,224.195ZM213.542,235.929L213.431,235.923C212.918,235.862 212.552,235.396 212.613,234.884C213.058,231.147 213.622,227.379 214.29,223.684C214.382,223.176 214.866,222.837 215.377,222.931C215.886,223.023 216.223,223.509 216.131,224.018C215.469,227.675 214.91,231.405 214.47,235.105C214.414,235.58 214.01,235.929 213.542,235.929ZM585.059,246.553C584.568,246.553 584.156,246.171 584.126,245.676C583.895,241.953 583.552,238.197 583.102,234.511C583.038,233.999 583.402,233.532 583.916,233.47C584.428,233.403 584.895,233.772 584.957,234.285C585.411,238.007 585.761,241.801 585.992,245.56C586.024,246.076 585.633,246.52 585.116,246.551L585.059,246.553ZM212.224,258.415C211.708,258.415 211.289,257.996 211.289,257.479L211.289,257.28C211.289,253.585 211.398,249.845 211.613,246.162C211.643,245.647 212.089,245.25 212.601,245.284C213.117,245.314 213.51,245.756 213.48,246.271C213.267,249.918 213.159,253.621 213.159,257.28L213.159,257.479C213.159,257.996 212.741,258.415 212.224,258.415ZM585.085,269.477L585.028,269.475C584.512,269.444 584.119,269.001 584.15,268.486C584.371,264.786 584.483,261.016 584.483,257.28L584.483,256.883C584.483,256.366 584.902,255.947 585.419,255.947C585.936,255.947 586.354,256.366 586.354,256.883L586.354,257.28C586.354,261.053 586.241,264.861 586.017,268.597C585.987,269.094 585.576,269.477 585.085,269.477ZM213.588,280.9C213.121,280.9 212.719,280.552 212.661,280.078C212.209,276.352 211.865,272.558 211.638,268.801C211.606,268.285 211.999,267.842 212.514,267.811C213.025,267.774 213.473,268.172 213.504,268.687C213.73,272.407 214.071,276.164 214.518,279.853C214.58,280.365 214.214,280.832 213.702,280.894L213.588,280.9ZM582.399,291.841L582.231,291.826C581.723,291.734 581.386,291.247 581.478,290.739C582.144,287.074 582.707,283.344 583.149,279.653C583.212,279.141 583.677,278.773 584.189,278.836C584.703,278.897 585.068,279.363 585.007,279.875C584.558,283.604 583.991,287.372 583.318,291.073C583.236,291.525 582.843,291.841 582.399,291.841ZM217.646,303.057C217.227,303.057 216.845,302.772 216.74,302.346C215.839,298.697 215.04,294.972 214.363,291.274C214.27,290.766 214.607,290.279 215.114,290.186C215.626,290.096 216.11,290.429 216.203,290.937C216.873,294.598 217.665,298.286 218.555,301.898C218.679,302.399 218.373,302.906 217.872,303.029L217.646,303.057ZM577.026,313.716C576.935,313.716 576.841,313.702 576.748,313.674C576.255,313.52 575.979,312.996 576.133,312.503C577.238,308.951 578.248,305.316 579.137,301.702C579.259,301.201 579.769,300.896 580.267,301.017C580.769,301.141 581.075,301.647 580.952,302.148C580.056,305.8 579.035,309.47 577.919,313.059C577.794,313.46 577.425,313.716 577.026,313.716ZM224.363,324.559C223.986,324.559 223.631,324.33 223.489,323.956C222.153,320.444 220.907,316.843 219.785,313.253C219.631,312.76 219.906,312.235 220.399,312.082C220.894,311.929 221.417,312.202 221.57,312.696C222.681,316.249 223.914,319.814 225.237,323.291C225.42,323.773 225.178,324.315 224.695,324.498C224.586,324.54 224.474,324.559 224.363,324.559ZM569.021,334.814C568.893,334.814 568.763,334.788 568.638,334.732C568.167,334.52 567.957,333.967 568.169,333.495C569.699,330.102 571.148,326.611 572.471,323.123C572.653,322.64 573.197,322.396 573.677,322.58C574.159,322.763 574.402,323.304 574.219,323.785C572.882,327.31 571.42,330.835 569.875,334.265C569.719,334.61 569.378,334.814 569.021,334.814ZM233.622,345.058C233.287,345.058 232.962,344.876 232.794,344.559C231.043,341.235 229.373,337.816 227.829,334.397C227.616,333.927 227.825,333.373 228.295,333.16C228.765,332.946 229.319,333.156 229.532,333.627C231.062,337.013 232.716,340.398 234.449,343.688C234.69,344.144 234.514,344.709 234.057,344.95C233.918,345.023 233.769,345.058 233.622,345.058ZM558.522,354.776C558.357,354.776 558.19,354.732 558.038,354.641C557.598,354.373 557.456,353.798 557.724,353.355C559.656,350.168 561.515,346.881 563.247,343.586C563.488,343.129 564.054,342.954 564.51,343.194C564.967,343.435 565.143,343.999 564.901,344.457C563.152,347.784 561.274,351.104 559.323,354.326C559.147,354.615 558.838,354.776 558.522,354.776ZM245.296,364.303C244.999,364.303 244.708,364.162 244.526,363.9C242.388,360.812 240.315,357.617 238.367,354.406C238.099,353.965 238.24,353.39 238.682,353.122C239.125,352.854 239.699,352.994 239.966,353.437C241.895,356.615 243.946,359.777 246.064,362.836C246.358,363.26 246.252,363.843 245.828,364.137C245.665,364.249 245.48,364.303 245.296,364.303ZM545.699,373.316C545.498,373.316 545.294,373.251 545.123,373.117C544.717,372.798 544.646,372.21 544.965,371.804C547.268,368.868 549.509,365.829 551.622,362.773C551.916,362.348 552.499,362.241 552.923,362.536C553.349,362.83 553.454,363.412 553.16,363.837C551.025,366.924 548.764,369.993 546.437,372.958C546.252,373.193 545.978,373.316 545.699,373.316ZM259.204,382.013C258.945,382.013 258.687,381.907 258.504,381.699C256.006,378.885 253.565,375.961 251.247,373.007C250.928,372.602 250.999,372.014 251.405,371.695C251.811,371.375 252.398,371.445 252.718,371.854C255.013,374.776 257.43,377.671 259.903,380.457C260.246,380.843 260.209,381.435 259.824,381.777C259.646,381.935 259.424,382.013 259.204,382.013ZM530.75,390.176C530.511,390.176 530.271,390.085 530.089,389.902C529.724,389.537 529.724,388.945 530.089,388.58C532.722,385.947 535.308,383.2 537.778,380.415C538.12,380.027 538.713,379.994 539.099,380.336C539.485,380.679 539.52,381.27 539.178,381.657C536.683,384.469 534.07,387.243 531.411,389.902C531.229,390.085 530.989,390.176 530.75,390.176ZM275.14,397.937C274.919,397.937 274.698,397.859 274.521,397.702C271.71,395.213 268.935,392.602 266.271,389.94C265.905,389.575 265.905,388.982 266.27,388.617C266.635,388.252 267.228,388.252 267.592,388.617C270.23,391.252 272.978,393.838 275.76,396.302C276.147,396.644 276.183,397.235 275.84,397.622C275.655,397.83 275.398,397.937 275.14,397.937ZM513.893,405.116C513.617,405.116 513.343,404.993 513.158,404.758C512.839,404.351 512.909,403.764 513.315,403.445C516.236,401.156 519.133,398.739 521.926,396.265C522.31,395.923 522.901,395.955 523.245,396.345C523.588,396.731 523.552,397.321 523.166,397.664C520.346,400.164 517.419,402.604 514.471,404.917C514.3,405.052 514.097,405.116 513.893,405.116ZM292.877,411.841C292.694,411.841 292.509,411.787 292.347,411.675C289.257,409.541 286.188,407.28 283.222,404.956C282.815,404.638 282.744,404.051 283.063,403.643C283.382,403.238 283.969,403.167 284.375,403.484C287.311,405.785 290.352,408.023 293.41,410.136C293.835,410.43 293.941,411.013 293.647,411.437C293.466,411.7 293.174,411.841 292.877,411.841ZM495.378,417.923C495.062,417.923 494.753,417.763 494.577,417.473C494.309,417.03 494.451,416.455 494.892,416.188C498.079,414.256 501.243,412.206 504.295,410.095C504.72,409.8 505.301,409.907 505.596,410.331C505.89,410.757 505.784,411.339 505.359,411.633C502.275,413.766 499.08,415.836 495.861,417.787C495.71,417.879 495.543,417.923 495.378,417.923ZM312.168,423.515C312.021,423.515 311.873,423.48 311.734,423.408C308.408,421.661 305.086,419.785 301.862,417.834C301.42,417.566 301.278,416.992 301.546,416.55C301.813,416.108 302.389,415.968 302.83,416.234C306.022,418.166 309.311,420.023 312.603,421.752C313.061,421.992 313.237,422.557 312.997,423.015C312.83,423.333 312.504,423.515 312.168,423.515ZM475.464,428.397C475.107,428.397 474.767,428.193 474.611,427.847C474.398,427.377 474.607,426.822 475.079,426.61C478.465,425.083 481.851,423.43 485.141,421.699C485.597,421.46 486.164,421.635 486.403,422.091C486.645,422.549 486.469,423.114 486.012,423.354C482.689,425.103 479.268,426.772 475.848,428.314C475.723,428.371 475.592,428.397 475.464,428.397ZM332.74,432.773C332.63,432.773 332.518,432.754 332.409,432.713C328.887,431.38 325.361,429.92 321.928,428.375C321.457,428.163 321.247,427.608 321.459,427.139C321.672,426.667 322.224,426.459 322.696,426.669C326.094,428.199 329.585,429.644 333.071,430.964C333.554,431.147 333.797,431.687 333.614,432.17C333.473,432.543 333.117,432.773 332.74,432.773ZM454.422,436.389C454.022,436.389 453.653,436.132 453.528,435.732C453.375,435.239 453.65,434.715 454.144,434.56C457.699,433.452 461.266,432.22 464.74,430.9C465.225,430.717 465.765,430.959 465.947,431.442C466.131,431.925 465.888,432.466 465.405,432.648C461.894,433.982 458.292,435.227 454.7,436.347C454.607,436.375 454.514,436.389 454.422,436.389ZM354.274,439.462L354.051,439.435C350.398,438.539 346.727,437.521 343.138,436.407C342.645,436.254 342.369,435.73 342.522,435.236C342.676,434.742 343.202,434.47 343.692,434.621C347.246,435.724 350.88,436.732 354.496,437.618C354.998,437.741 355.304,438.247 355.182,438.749C355.077,439.176 354.695,439.462 354.274,439.462ZM432.549,441.772C432.105,441.772 431.712,441.457 431.63,441.006C431.537,440.498 431.874,440.011 432.382,439.918C436.053,439.247 439.741,438.457 443.343,437.57C443.844,437.444 444.352,437.753 444.475,438.254C444.598,438.756 444.292,439.263 443.791,439.386C440.151,440.281 436.426,441.08 432.718,441.757L432.549,441.772ZM376.438,443.484L376.326,443.478C372.597,443.032 368.829,442.465 365.127,441.795C364.619,441.702 364.281,441.216 364.373,440.707C364.465,440.2 364.955,439.865 365.461,439.954C369.125,440.618 372.856,441.18 376.547,441.62C377.06,441.682 377.426,442.148 377.365,442.66C377.308,443.135 376.905,443.484 376.438,443.484ZM410.187,444.472C409.696,444.472 409.284,444.09 409.255,443.593C409.224,443.078 409.616,442.635 410.132,442.604C413.849,442.38 417.605,442.041 421.297,441.596C421.815,441.539 422.275,441.9 422.338,442.412C422.398,442.925 422.033,443.391 421.522,443.453C417.792,443.902 413.998,444.245 410.243,444.471L410.187,444.472ZM398.921,444.813L398.821,444.813C395.088,444.813 391.313,444.701 387.605,444.483C387.089,444.452 386.696,444.009 386.727,443.494C386.757,442.978 387.202,442.586 387.715,442.615C391.387,442.832 395.124,442.942 398.821,442.942L398.921,442.942C399.438,442.942 399.857,443.36 399.857,443.878C399.857,444.395 399.438,444.813 398.921,444.813Z" style="fill:rgb(191,215,204);fill-rule:nonzero;"/>
        <path d="M367.05,214.853C435.231,171.559 430.414,109.536 429.86,106.432C429.146,102.456 428.33,94.324 432.165,94.117C434.114,94.014 435.158,95.079 435.808,97.55C435.887,95.825 436.151,93.967 437.883,93.51C439.424,93.097 441.517,95.393 442.026,97.137C442.054,97.295 442.079,97.457 442.131,97.601C442.079,97.457 442.054,97.295 442.026,97.137C441.785,95.591 442.843,93.427 444.258,93.052C446.111,92.542 447.483,94.773 447.916,96.627C447.984,94.899 448.508,93.506 450.224,93.043C453.836,92.072 454.396,99.361 454.693,103.709C454.929,107.188 456.126,185.142 379.385,232.263L367.05,214.853Z" style="fill:rgb(253,219,190);fill-rule:nonzero;"/>
        <path d="M367.147,214.792C367.155,214.787 367.163,214.782 367.171,214.777C367.163,214.782 367.155,214.787 367.147,214.792ZM367.242,214.731C367.254,214.724 367.266,214.716 367.278,214.708C367.266,214.716 367.255,214.724 367.242,214.731ZM367.338,214.67C367.351,214.662 367.363,214.654 367.376,214.646C367.364,214.654 367.351,214.662 367.338,214.67ZM367.432,214.611C367.447,214.601 367.463,214.59 367.478,214.581C367.466,214.589 367.444,214.603 367.432,214.611ZM367.526,214.551C367.542,214.54 367.558,214.53 367.574,214.52C367.557,214.53 367.542,214.54 367.526,214.551ZM367.619,214.491C367.637,214.479 367.654,214.469 367.672,214.457C367.655,214.468 367.635,214.48 367.619,214.491ZM367.712,214.431C367.73,214.419 367.747,214.409 367.765,214.397C367.748,214.408 367.729,214.42 367.712,214.431ZM367.803,214.373C367.823,214.36 367.844,214.347 367.865,214.333C367.844,214.346 367.823,214.36 367.803,214.373ZM367.883,214.322C367.908,214.305 367.932,214.29 367.958,214.273C367.933,214.289 367.907,214.306 367.883,214.322ZM367.962,214.271C374.622,209.984 380.572,205.52 385.89,200.951L385.889,200.956C380.567,205.526 374.623,209.984 367.962,214.271Z" style="fill:rgb(125,166,145);fill-rule:nonzero;"/>
        <path d="M376.917,228.78L367.05,214.853C367.083,214.833 367.115,214.812 367.147,214.792C367.155,214.787 367.163,214.782 367.171,214.777C367.195,214.762 367.218,214.747 367.242,214.731C367.255,214.724 367.266,214.716 367.278,214.708C367.298,214.696 367.318,214.683 367.338,214.67C367.351,214.662 367.364,214.654 367.376,214.646C367.394,214.634 367.414,214.622 367.432,214.611C367.444,214.603 367.466,214.589 367.478,214.581C367.495,214.57 367.509,214.561 367.526,214.551C367.542,214.54 367.557,214.53 367.574,214.52C367.589,214.51 367.604,214.501 367.619,214.491C367.635,214.48 367.655,214.468 367.672,214.457C367.685,214.449 367.699,214.439 367.712,214.431C367.729,214.42 367.748,214.408 367.765,214.397C367.777,214.389 367.79,214.381 367.803,214.373C367.823,214.36 367.844,214.346 367.865,214.333C367.87,214.33 367.877,214.325 367.883,214.322C367.907,214.306 367.933,214.289 367.958,214.273C367.959,214.273 367.961,214.271 367.962,214.271C374.623,209.984 380.567,205.526 385.889,200.956L376.917,228.78Z" style="fill:rgb(227,199,173);fill-rule:nonzero;"/>
        <path d="M398.899,188.28C398.895,188.28 398.895,188.279 398.891,188.279C400.419,186.583 401.872,184.882 403.256,183.18C403.259,183.18 403.262,183.18 403.266,183.18C401.882,184.881 400.425,186.586 398.899,188.28Z" style="fill:rgb(125,166,145);fill-rule:nonzero;"/>
        <path d="M424.05,192.14C416.279,191.684 407.766,190.534 398.899,188.28C400.425,186.586 401.882,184.881 403.266,183.18C403.598,183.185 403.933,183.187 404.269,183.187C413.45,183.187 423.7,181.524 432.585,179.565C430.041,183.75 427.207,187.957 424.05,192.14Z" style="fill:rgb(227,199,173);fill-rule:nonzero;"/>
        <path d="M331.328,370.176L390.739,185.912C419.841,195.439 446.429,192.242 457.868,190.06C484.421,216.065 533.284,311.976 532.308,346.461C472.2,377.723 416.797,399.855 331.328,370.176Z" style="fill:rgb(246,248,249);fill-rule:nonzero;"/>
        <path d="M532.308,346.461L567.787,330.468L605.969,367.016C605.969,367.016 671.385,341.943 641.149,332.615C609.187,322.753 605.929,352.165 605.929,352.165L574.477,311.616L536.605,319.644C536.605,319.644 514.773,253.317 479.026,203.397L513.979,179.799L564.876,184.405C564.876,184.405 605.805,141.511 574.093,143.253C548.419,144.662 557.06,174.83 557.06,174.83L513.664,163.323L457.868,190.06L532.308,346.461Z" style="fill:rgb(61,52,41);fill-rule:nonzero;"/>
        <path d="M484.828,211.815C484.826,211.812 484.824,211.81 484.822,211.807C484.824,211.81 484.826,211.812 484.828,211.815ZM484.785,211.751C483.98,210.539 483.163,209.328 482.341,208.13L482.342,208.129C483.164,209.329 483.979,210.537 484.785,211.751Z" style="fill:rgb(111,146,126);fill-rule:nonzero;"/>
        <path d="M396.885,266.811L389.995,261.714L392.394,241.268L400.974,238.107L409.685,246.782L469.676,214.868L485.073,247.219L409.131,260.271L396.885,266.811Z" style="fill:rgb(196,196,196);fill-rule:nonzero;"/>
        <path d="M485.073,247.219L469.676,214.868L482.342,208.129C483.163,209.328 483.98,210.539 484.785,211.751C484.798,211.77 484.81,211.788 484.822,211.807C484.824,211.81 484.826,211.812 484.828,211.815C491.778,222.285 498.13,233.242 503.827,243.995L485.073,247.219Z" style="fill:rgb(48,42,32);fill-rule:nonzero;"/>
        <path d="M423.48,383.509C414.775,380.612 405.739,377.497 396.4,374.143C385.379,370.186 379.213,365.239 367.443,360.608L368.552,341.321C379.895,345.739 391.19,349.839 402.276,353.633C426.257,361.839 449.253,368.605 469.62,374.036C454.841,378.803 439.624,382.163 423.48,383.509Z" style="fill:rgb(221,222,223);fill-rule:nonzero;"/>
        <path d="M392.395,241.268L400.975,238.107L409.686,246.782L488.644,194.081L521.487,209.029L503.854,238.263L409.131,260.271L396.885,266.812L389.995,261.714L392.395,241.268Z" style="fill:rgb(61,52,41);fill-rule:nonzero;"/>
        <path d="M390.739,185.912C390.739,185.912 202.588,98.543 213.599,274.134C213.599,274.134 232.151,334.748 331.328,370.176C400.975,259.965 390.739,185.912 390.739,185.912Z" style="fill:rgb(253,219,190);fill-rule:nonzero;"/>
        <path d="M210.162,97.266C210.162,97.266 335.091,142.051 247.538,279.874L287.57,305.472C287.57,305.472 266.869,316.545 282.825,327.601C298.79,338.665 298.903,314.111 298.903,314.111C298.903,314.111 327.266,344.037 331.328,370.176C333.058,369.923 126.658,350.688 179.005,283.405C179.005,283.405 148.125,259.609 163.817,209.235C180.079,157.022 250.843,158.861 210.162,97.266Z" style="fill:rgb(61,52,41);fill-rule:nonzero;"/>
        <path d="M339.223,259.264C339.223,259.264 343.194,236.428 353.492,208.279C353.492,208.279 380.647,216.96 373.776,241.514C366.204,268.57 339.223,259.264 339.223,259.264Z" style="fill:rgb(235,125,134);fill-rule:nonzero;"/>
        <path d="M358.165,359.51L368.553,341.321C378.726,348.006 388.919,354.369 398.972,360.39L388.95,379.226C378.996,373.058 368.712,366.49 358.165,359.51Z" style="fill:rgb(246,248,249);fill-rule:nonzero;"/>
        <path d="M398.972,360.39C468.262,401.886 521.525,369.744 524.05,367.856C527.283,365.435 534.184,361.055 536.09,364.389C537.058,366.084 536.574,367.495 534.657,369.186C536.234,368.481 538.014,367.883 539.199,369.226C540.26,370.418 539.146,373.319 537.818,374.557C537.688,374.651 537.555,374.747 537.45,374.857C537.555,374.747 537.688,374.651 537.818,374.557C539.09,373.646 541.499,373.62 542.47,374.717C543.757,376.145 542.379,378.372 540.917,379.591C542.491,378.876 543.971,378.719 545.155,380.045C547.644,382.837 541.382,386.608 537.629,388.826C534.627,390.598 465.502,426.654 388.95,379.226L398.972,360.39Z" style="fill:rgb(253,219,190);fill-rule:nonzero;"/>
        <path d="M306.528,256.324C314.272,258.162 319.863,262.543 319.017,266.11C318.17,269.676 311.206,271.077 303.462,269.238C295.718,267.4 290.127,263.019 290.974,259.453C291.82,255.886 298.784,254.485 306.528,256.324Z" style="fill:rgb(61,52,41);fill-rule:nonzero;"/>
        <path d="M324.486,180.681C332.229,182.52 337.821,186.901 336.975,190.467C336.128,194.034 329.164,195.434 321.42,193.596C313.676,191.757 308.084,187.376 308.931,183.81C309.778,180.244 316.742,178.843 324.486,180.681Z" style="fill:rgb(61,52,41);fill-rule:nonzero;"/>
        <path d="M613.946,572.417C611.524,582.007 608.936,585.937 607.616,595.664L578.751,583.311C581.491,569.181 588.816,552.384 592.606,538.014C595.689,526.326 599.665,511.851 597.326,499.609C595.647,491.586 589.417,471.883 583.841,464.063C582.297,461.898 578.992,456.722 580.353,453.749C580.809,451.301 585.519,451.826 588.066,454.735C593.22,462.516 601.602,469.867 606.292,467.363C610.496,465.191 611.381,458.179 611.326,453.943C611.703,448.827 614.012,436.146 613.73,431.012C613.565,428.026 613.576,419.689 617.421,418.83C624.067,417.344 622.816,439.235 622.911,442.906C622.965,445.019 621.963,450.292 624.204,451.575C630.129,454.967 635.356,423.137 636.352,419.301C637.131,416.299 639.227,410.232 643.332,409.546C648.896,408.616 642.104,433.787 641.315,435.751C639.282,442.127 634.616,452.564 637.231,455.397C639.048,457.362 643.986,451.986 647.518,446.299C650.614,441.312 653.903,430.882 657.039,427.574C658.644,425.763 663.416,425.062 663.139,428.81C663.195,433.043 656.479,447.743 654.571,451.187C653.782,453.151 648.937,462.218 650.482,464.34C652.537,467.163 657.296,459.777 658.909,458.07C661.912,454.894 667.371,445.475 670.128,447.326C673.663,449.701 668.466,457.899 663.385,464.089C655.457,473.745 639.899,496.771 637.117,502.303C629.484,517.479 619.954,548.634 613.946,572.417Z" style="fill:rgb(253,219,190);fill-rule:nonzero;"/>
        <path d="M624.528,544.779L625.51,540.896L590.166,532.947L589.1,537.085L624.528,544.779Z" style="fill:white;fill-rule:nonzero;"/>
        <path d="M614.607,600L627.449,545.394L587.101,536.48L567.539,600L614.607,600Z" style="fill:rgb(61,84,165);fill-rule:nonzero;"/>
        <path d="M619.702,554.739C617.777,554.739 616.214,553.183 616.206,551.257C616.198,549.325 617.758,547.753 619.689,547.745C619.694,547.745 619.698,547.745 619.702,547.745C621.627,547.745 623.192,549.302 623.2,551.228C623.207,553.16 621.648,554.732 619.717,554.739C619.712,554.739 619.707,554.739 619.702,554.739Z" style="fill:rgb(47,69,143);fill-rule:nonzero;"/>
        <path d="M617.031,564.805C615.107,564.805 613.543,563.248 613.535,561.321C613.527,559.39 615.087,557.818 617.018,557.811C617.023,557.811 617.028,557.811 617.033,557.811C618.958,557.811 620.521,559.367 620.529,561.294C620.537,563.226 618.978,564.797 617.046,564.805C617.041,564.805 617.036,564.805 617.031,564.805Z" style="fill:rgb(47,69,143);fill-rule:nonzero;"/>
        <path d="M193.9,570.786C196.905,580.21 199.711,589.577 202.466,599L227.374,576.389C222.559,562.823 217.756,549.252 213.093,535.141C209.301,523.664 204.445,509.46 206.03,497.098C207.215,488.986 212.227,468.938 217.314,460.793C218.722,458.537 221.704,453.168 220.164,450.284C219.559,447.868 214.89,448.681 212.525,451.741C207.857,459.822 199.94,467.673 195.107,465.461C190.777,463.551 189.465,456.606 189.261,452.374C188.571,447.291 185.489,434.774 185.457,429.634C185.438,426.643 184.917,418.323 181.027,417.7C174.301,416.624 176.891,438.397 177.022,442.067C177.097,444.18 178.42,449.381 176.262,450.8C170.556,454.547 163.389,423.097 162.16,419.329C161.199,416.381 158.734,410.454 154.595,410.021C148.985,409.434 157.307,434.141 158.213,436.053C160.634,442.293 165.93,452.424 163.492,455.411C161.8,457.485 156.542,452.422 152.668,446.96C149.272,442.172 145.351,431.964 142.019,428.854C140.306,427.144 135.5,426.737 136.005,430.461C136.209,434.689 143.812,448.951 145.928,452.271C146.835,454.184 152.226,462.937 150.814,465.149C148.936,468.093 143.734,461.012 142.019,459.408C138.827,456.421 132.802,447.354 130.162,449.371C126.781,451.957 132.47,459.822 137.92,465.688C146.425,474.842 163.364,496.872 166.479,502.223C175.027,516.903 186.447,547.415 193.9,570.786Z" style="fill:rgb(253,219,190);fill-rule:nonzero;"/>
        <path d="M179.551,541.433L178.279,537.634L212.923,527.042L214.298,531.088L179.551,541.433Z" style="fill:white;fill-rule:nonzero;"/>
        <path d="M194.267,600L176.685,542.266L216.246,530.334L240.568,600L194.267,600Z" style="fill:rgb(38,119,113);fill-rule:nonzero;"/>
        <path d="M184.848,551.011C183.029,551.011 181.494,549.605 181.362,547.764C181.224,545.837 182.674,544.163 184.601,544.025C184.686,544.019 184.771,544.016 184.855,544.016C186.672,544.016 188.207,545.422 188.338,547.264C188.477,549.19 187.027,550.863 185.101,551.002C185.016,551.008 184.931,551.011 184.848,551.011Z" style="fill:rgb(32,99,94);fill-rule:nonzero;"/>
        <path d="M188.27,560.846C186.452,560.846 184.917,559.44 184.785,557.599C184.646,555.672 186.096,553.998 188.022,553.86C188.107,553.854 188.192,553.851 188.275,553.851C190.094,553.851 191.629,555.257 191.761,557.099C191.899,559.024 190.449,560.698 188.523,560.837C188.438,560.843 188.353,560.846 188.27,560.846Z" style="fill:rgb(32,99,94);fill-rule:nonzero;"/>
        <path d="M467.214,579.335C467.05,586.314 466.817,593.182 466.553,600L496.113,600C496.722,576.758 498.722,549.091 502.219,534.266C503.641,528.241 513.427,502.232 518.898,490.999C522.404,483.8 525.556,474.619 521.565,473.13C518.455,471.968 515.331,482.398 513.146,486.184C511.975,488.219 509.06,496.508 506.407,494.238C504.411,492.532 507.02,482.59 507.33,480.496C508.387,476.703 511.507,460.845 510.47,456.741C509.869,453.031 505.39,454.82 504.249,456.956C501.967,460.9 501.189,471.809 499.335,477.378C497.221,483.731 493.665,490.106 491.441,488.615C488.24,486.468 490.356,475.233 490.853,468.559C491.164,466.466 491.929,440.405 486.732,442.602C482.899,444.222 482.268,450.609 482.207,453.71C482.129,457.672 484.434,489.847 477.883,487.923C475.404,487.194 475.155,481.834 474.612,479.791C473.668,476.242 469.804,454.658 463.684,457.647C460.144,459.376 462.068,467.487 462.922,470.353C464.388,475.28 465.086,488.151 465.906,493.216C466.942,497.322 467.71,504.35 464.125,507.438C460.146,510.961 450.285,505.757 443.466,499.386C440.311,497.148 435.609,497.73 435.734,500.217C435.101,503.424 439.517,507.692 441.521,509.439C448.76,515.751 459.394,533.47 462.89,540.885C468.007,552.249 467.499,567.251 467.214,579.335Z" style="fill:rgb(253,219,190);fill-rule:nonzero;"/>
        <path d="M463.888,570.785L464.178,566.789L500.227,570.368L499.938,574.632L463.888,570.785Z" style="fill:white;fill-rule:nonzero;"/>
        <path d="M457.56,600L460.922,570.449L502.024,574.687L501.642,600L457.56,600Z" style="fill:rgb(189,136,44);fill-rule:nonzero;"/>
        <path d="M466.434,581.937C466.065,581.937 465.69,581.878 465.32,581.754C463.489,581.139 462.504,579.156 463.118,577.325C463.609,575.864 464.972,574.941 466.432,574.941C466.802,574.941 467.177,575 467.547,575.124C469.378,575.739 470.363,577.722 469.748,579.553C469.258,581.014 467.895,581.937 466.434,581.937Z" style="fill:rgb(155,113,42);fill-rule:nonzero;"/>
        <path d="M465.802,592.331C465.432,592.331 465.057,592.272 464.688,592.147C462.856,591.533 461.871,589.55 462.486,587.72C462.977,586.258 464.34,585.335 465.801,585.335C466.17,585.335 466.545,585.394 466.914,585.518C468.745,586.133 469.731,588.116 469.116,589.946C468.625,591.408 467.262,592.331 465.802,592.331Z" style="fill:rgb(155,113,42);fill-rule:nonzero;"/>
        <path d="M383.279,504.912C383.414,502.427 378.714,501.824 375.551,504.049C368.704,510.392 358.822,515.555 354.858,512.014C351.285,508.91 352.083,501.887 353.137,497.784C353.979,492.724 354.731,479.855 356.218,474.934C357.083,472.071 359.042,463.969 355.51,462.225C349.402,459.21 345.446,480.777 344.487,484.322C343.936,486.362 343.664,491.723 341.183,492.44C334.624,494.336 337.065,462.172 337.003,458.21C336.956,455.109 336.352,448.719 332.525,447.082C327.338,444.864 327.993,470.927 328.294,473.021C328.764,479.697 330.832,490.941 327.621,493.075C325.392,494.557 321.863,488.166 319.775,481.805C317.944,476.228 317.213,465.316 314.947,461.361C313.816,459.222 309.345,457.413 308.728,461.12C307.674,465.221 310.726,481.092 311.767,484.889C312.069,486.983 314.635,496.937 312.632,498.635C309.968,500.893 307.089,492.592 305.925,490.553C303.757,486.756 300.679,476.313 297.562,477.462C293.566,478.935 296.679,488.128 300.154,495.343C305.577,506.599 315.254,532.649 316.65,538.681C319.869,552.585 321.725,577.761 322.365,600L351.892,600C351.722,594.676 351.569,589.325 351.464,583.897C351.23,571.811 350.786,556.808 355.951,545.465C359.479,538.065 370.188,520.393 377.452,514.112C379.464,512.372 383.899,508.122 383.279,504.912Z" style="fill:rgb(253,219,190);fill-rule:nonzero;"/>
        <path d="M354.107,570.019L354.079,566.013L317.872,567.227L317.883,571.5L354.107,570.019Z" style="fill:white;fill-rule:nonzero;"/>
        <path d="M358.823,600L357.088,569.877L315.796,571.418L315.584,600L358.823,600Z" style="fill:rgb(136,63,54);fill-rule:nonzero;"/>
        <path d="M351.064,580.987C349.515,580.987 348.1,579.951 347.685,578.384C347.191,576.518 348.304,574.603 350.171,574.109C350.471,574.03 350.772,573.992 351.068,573.992C352.616,573.992 354.032,575.028 354.447,576.595C354.941,578.462 353.828,580.376 351.96,580.87C351.661,580.949 351.36,580.987 351.064,580.987Z" style="fill:rgb(111,52,45);fill-rule:nonzero;"/>
        <path d="M351.015,591.401C349.467,591.4 348.052,590.365 347.637,588.798C347.143,586.931 348.256,585.017 350.124,584.522C350.423,584.443 350.724,584.405 351.02,584.405C352.568,584.405 353.984,585.441 354.398,587.009C354.893,588.876 353.779,590.79 351.912,591.283C351.612,591.363 351.311,591.401 351.015,591.401Z" style="fill:rgb(111,52,45);fill-rule:nonzero;"/>
    </g>
</svg>
