<?xml version="1.0" encoding="UTF-8" standalone="no"?>
<!DOCTYPE svg PUBLIC "-//W3C//DTD SVG 1.1//EN" "http://www.w3.org/Graphics/SVG/1.1/DTD/svg11.dtd">
<svg width="100%" height="100%" viewBox="0 0 3334 3334" version="1.1" xmlns="http://www.w3.org/2000/svg" xmlns:xlink="http://www.w3.org/1999/xlink" xml:space="preserve" xmlns:serif="http://www.serif.com/" style="fill-rule:evenodd;clip-rule:evenodd;stroke-linejoin:round;stroke-miterlimit:1.41421;">
    <g transform="matrix(4.16667,0,0,4.16667,0,0)">
        <path d="M572.591,301.188C574.831,297.088 578.532,290.181 574.714,288.981C572.894,288.404 571.612,289.36 570.555,290.887C571.231,288.959 571.278,286.148 569.319,285.545C567.67,285.019 565.138,286.705 564.769,288.426C565.59,286.705 565.069,282.843 563.294,282.276C561.467,281.697 558.821,282.922 557.756,284.439C558.592,281.823 568.139,262.987 564.233,261.696C560.329,260.405 550.242,285.322 548.591,289.324C546.938,293.327 514.425,386.492 378.1,374.525L376.588,399.024C526.188,410.483 570.352,305.286 572.591,301.188Z" style="fill:rgb(253,219,190);fill-rule:nonzero;"/>
        <path d="M343.237,393.978C355.361,397.145 366.435,398.724 376.588,399.024L378.1,374.525C365.398,373.846 357.079,372.545 341.746,368.408L343.237,393.978Z" style="fill:rgb(246,248,249);fill-rule:nonzero;"/>
        <path d="M344.104,369.036C343.336,368.835 342.55,368.625 341.746,368.408C342.554,368.626 343.332,368.832 344.103,369.035L344.104,369.036Z" style="fill:rgb(161,192,176);fill-rule:nonzero;"/>
        <path d="M360.268,397.513C356.872,396.998 353.387,396.351 349.805,395.561L341.772,368.867L341.746,368.408C342.55,368.625 343.336,368.835 344.104,369.036L360.268,397.513Z" style="fill:rgb(233,233,233);fill-rule:nonzero;"/>
        <path d="M399.264,696.144C223.127,696.144 80.339,685.074 80.339,671.418C80.339,663.329 130.429,656.147 207.872,651.635L207.279,660.914C207.279,660.914 199.427,653.864 188.376,653.864C183.682,653.864 178.411,655.136 172.919,658.759C148.279,675.017 218.209,677.526 218.209,677.526L222.877,650.813C248.574,649.487 276.875,648.444 307.083,647.738C306.049,649.223 305.443,651.029 305.443,652.976L305.443,665.504C305.443,670.574 309.553,674.685 314.624,674.685L621.091,674.685C626.161,674.685 630.271,670.574 630.271,665.504L630.271,654.369C684.751,658.805 718.188,664.809 718.188,671.418C718.188,685.074 575.401,696.144 399.264,696.144Z" style="fill:rgb(161,192,176);fill-rule:nonzero;"/>
        <path d="M461.361,646.737C433.732,617.249 414.623,645.56 414.623,645.56L379.831,495.345C270.438,524.934 213.391,565.33 213.391,565.33L207.279,660.914C207.279,660.914 191.343,646.604 172.919,658.759C148.279,675.017 218.209,677.526 218.209,677.526L235.265,579.915C323.435,560.745 363.34,535.322 363.34,535.322L406.756,661.6C406.756,661.6 481.009,667.707 461.361,646.737Z" style="fill:rgb(82,61,39);fill-rule:nonzero;"/>
        <path d="M340.598,364.965C340.598,364.965 284.808,149.846 147.042,278.473C147.042,278.473 109.525,335.08 147.725,441.236C318.222,414.236 340.598,364.965 340.598,364.965Z" style="fill:rgb(253,219,190);fill-rule:nonzero;"/>
        <path d="M291.021,155.245C291.021,155.245 339,289.077 165.395,310.455L169.404,353.248C169.404,353.248 146.154,343.654 147.868,364.383C149.581,385.118 169.97,368.509 169.97,368.509C169.97,368.509 166.582,420.085 147.725,441.236C149.108,442.497 17.282,265.842 115.825,256.168C115.825,256.168 114.497,214.43 166.848,193.118C221.106,171.03 267.751,230.826 291.021,155.245Z" style="fill:rgb(82,61,39);fill-rule:nonzero;"/>
        <path d="M340.598,364.965L379.831,495.345C379.831,495.345 320.14,537.349 213.391,565.33L147.725,441.236C147.725,441.236 283.817,411.341 340.598,364.965Z" style="fill:rgb(246,248,249);fill-rule:nonzero;"/>
        <path d="M299.273,408.032L305.982,414.244L303.375,425.174L328.025,491.191L310.379,517.685L287.411,498.21L292.477,429.979L282.534,422.833L283.888,415.389L299.273,408.032Z" style="fill:rgb(82,61,39);fill-rule:nonzero;"/>
        <path d="M275.27,311.15C278.172,318.36 283.303,323.092 286.727,321.726C290.152,320.357 290.577,313.402 287.674,306.195C284.765,298.985 279.634,294.253 276.215,295.62C272.787,296.985 272.368,303.941 275.27,311.15Z" style="fill:rgb(82,61,39);fill-rule:nonzero;"/>
        <path d="M192.001,347.845C194.901,355.054 200.026,359.793 203.458,358.42C206.871,357.05 207.3,350.093 204.39,342.888C201.49,335.679 196.363,330.944 192.938,332.313C189.515,333.682 189.091,340.635 192.001,347.845Z" style="fill:rgb(82,61,39);fill-rule:nonzero;"/>
        <path d="M282.614,344.07C274.043,346.938 247.064,356.489 230.076,368.421C228.769,369.339 228.316,371.056 228.933,372.529C231.903,379.622 242.591,398.03 270.326,386.049C297.695,374.227 290.392,353.173 286.77,345.813C286.01,344.269 284.246,343.524 282.614,344.07Z" style="fill:rgb(235,125,134);fill-rule:nonzero;"/>
        <path d="M337.854,643.795L326.378,643.795L326.378,595.426C326.378,579.507 327.673,564.868 330.018,551.399C352.623,542.151 363.34,535.322 363.34,535.322L386.089,601.487L337.854,643.795ZM401.32,588.127L379.831,495.345L369.953,462.518C393.373,434.466 421.48,418.766 441.557,410.405C443.86,409.445 443.86,406.366 441.557,405.406C436.944,403.485 431.907,401.177 426.601,398.421C433.371,397.679 439.859,396.671 446.065,395.434C453.093,398.367 459.051,400.338 463.288,401.582L463.288,533.774L401.32,588.127ZM498.904,556.975L472.47,533.776L472.47,416.116C489.771,450.074 496.553,500.493 498.904,556.975ZM401.634,375.586C398.492,375.586 395.299,375.526 392.027,375.403C358.435,347.189 326.378,299.529 326.378,220.386L326.378,172.017L609.337,172.017L499.879,172.017L326.378,172.017L326.378,189.846L499.866,189.846C499.814,221.155 499.578,248.697 498.673,272.984C488.588,275.75 478.223,277.133 467.857,277.133C455.601,277.133 443.344,275.199 431.551,271.332L344.494,242.784C344.068,242.644 343.642,242.579 343.226,242.579C340.924,242.579 338.949,244.581 339.205,247.048C341.83,272.349 348.292,295.289 358.521,315.49C369.401,336.979 384.579,355.509 403.634,370.566C405.792,372.271 407.952,373.894 410.106,375.437C407.335,375.535 404.512,375.585 401.634,375.586Z" style="fill:rgb(226,234,231);fill-rule:nonzero;"/>
        <path d="M426.601,398.421C415.762,392.79 403.802,385.293 392.027,375.403C395.299,375.526 398.492,375.586 401.634,375.586C404.512,375.585 407.335,375.535 410.106,375.437C423.029,384.698 435.709,391.111 446.065,395.434C439.859,396.671 433.371,397.679 426.601,398.421Z" style="fill:rgb(245,240,233);fill-rule:nonzero;"/>
        <path d="M386.089,601.487L363.34,535.322C363.34,535.322 352.623,542.151 330.018,551.399C332.047,539.747 334.859,528.977 338.297,519.021C365.493,505.435 379.831,495.345 379.831,495.345L401.32,588.127L386.089,601.487Z" style="fill:rgb(211,207,202);fill-rule:nonzero;"/>
        <path d="M338.297,519.021C346.201,496.128 357.405,477.548 369.953,462.518L379.831,495.345C379.831,495.345 365.493,505.435 338.297,519.021Z" style="fill:rgb(244,245,246);fill-rule:nonzero;"/>
        <path d="M621.091,141.126L314.624,141.126C309.553,141.126 305.443,145.237 305.443,150.308L305.443,162.836C305.443,167.906 309.553,172.017 314.624,172.017L621.091,172.017C626.161,172.017 630.271,167.906 630.271,162.836L630.271,150.308C630.271,145.237 626.161,141.126 621.091,141.126Z" style="fill:rgb(140,99,57);fill-rule:nonzero;"/>
        <path d="M621.091,643.795L314.624,643.795C309.553,643.795 305.443,647.905 305.443,652.976L305.443,665.504C305.443,670.574 309.553,674.685 314.624,674.685L621.091,674.685C626.161,674.685 630.271,670.574 630.271,665.504L630.271,652.976C630.271,647.905 626.161,643.795 621.091,643.795Z" style="fill:rgb(140,99,57);fill-rule:nonzero;"/>
        <path d="M621.091,665.325L314.624,665.325C309.553,665.325 305.443,661.214 305.443,656.144L305.443,665.504C305.443,670.574 309.553,674.685 314.624,674.685L621.091,674.685C626.161,674.685 630.271,670.574 630.271,665.504L630.271,656.144C630.271,661.214 626.161,665.325 621.091,665.325Z" style="fill:rgb(133,92,54);fill-rule:nonzero;"/>
        <path d="M344.494,242.784C341.711,241.871 338.902,244.135 339.205,247.048C341.83,272.349 348.292,295.289 358.521,315.49C369.401,336.979 384.579,355.509 403.634,370.566C431.452,392.549 459.746,400.802 467.879,402.837C475.915,400.852 503.536,392.853 531.275,371.2C550.531,356.168 565.879,337.625 576.893,316.085C587.296,295.736 593.86,272.598 596.512,247.049C596.815,244.135 594.006,241.871 591.223,242.784L504.164,271.332C480.577,279.066 455.138,279.066 431.551,271.332L344.494,242.784Z" style="fill:rgb(237,205,127);fill-rule:nonzero;"/>
        <path d="M337.854,643.795L467.879,529.747L597.831,643.795L337.854,643.795Z" style="fill:rgb(237,205,127);fill-rule:nonzero;"/>
        <rect x="463.288" y="392.145" width="9.182" height="152.97" style="fill:rgb(237,205,127);fill-rule:nonzero;"/>
        <path d="M250.864,480.22C237.11,480.22 222.306,479.051 206.419,476.438C196.329,475.264 185.434,472.732 173.629,468.53L174.352,444.075C189.271,449.522 197.446,450.389 210.042,452.163C225.684,454.914 240.055,456.133 253.242,456.133C267.022,456.133 279.509,454.802 290.805,452.496L288.985,477.005C277.276,479.057 264.586,480.221 250.864,480.22ZM319.733,468.984L311.459,446.823C330.93,439.997 345.937,430.229 357.26,420.337L364.785,445.346C352.602,454.215 337.698,462.638 319.733,468.984Z" style="fill:rgb(233,233,233);fill-rule:nonzero;"/>
        <path d="M288.985,477.005L290.805,452.496C298.191,450.988 305.064,449.065 311.459,446.823L319.733,468.984C310.333,472.304 300.104,475.056 288.985,477.005Z" style="fill:rgb(78,58,36);fill-rule:nonzero;"/>
        <path d="M402.983,375.74C405.223,371.641 408.924,364.733 405.105,363.534C403.286,362.957 402.005,363.913 400.947,365.439C401.623,363.512 401.671,360.701 399.711,360.097C398.062,359.571 395.529,361.258 395.161,362.978C395.981,361.258 395.46,357.396 393.686,356.829C391.858,356.25 389.213,357.475 388.147,358.992C388.983,356.375 398.53,337.54 394.625,336.249C390.721,334.958 380.634,359.875 378.982,363.877C377.331,367.88 344.816,461.045 208.491,449.077L206.98,473.576C356.58,485.036 400.743,379.838 402.983,375.74Z" style="fill:rgb(253,219,190);fill-rule:nonzero;"/>
        <path d="M173.628,468.53C185.752,471.697 196.827,473.276 206.98,473.576L208.491,449.077C195.79,448.398 187.471,447.098 172.137,442.961L173.628,468.53Z" style="fill:rgb(246,248,249);fill-rule:nonzero;"/>
        <path d="M621.091,162.657L314.624,162.657C309.553,162.657 305.443,158.546 305.443,153.476L305.443,162.836C305.443,167.906 309.553,172.017 314.624,172.017L621.091,172.017C626.161,172.017 630.271,167.906 630.271,162.836L630.271,153.476C630.271,158.546 626.161,162.657 621.091,162.657Z" style="fill:rgb(133,92,54);fill-rule:nonzero;"/>
        <path d="M609.338,643.795L597.831,643.795L609.337,643.795L609.337,595.426C609.337,476.667 537.164,428.805 495.916,411.148C537.164,428.805 609.338,476.667 609.338,595.426L609.338,643.795ZM492.43,407.906C492.43,406.896 493.006,405.886 494.158,405.406C535.076,388.367 609.337,340.851 609.337,220.386L609.337,189.846L609.337,172.017L609.338,172.017L609.338,220.386C609.338,340.851 535.076,388.367 494.158,405.406C493.006,405.886 492.43,406.896 492.43,407.906Z" style="fill:rgb(190,216,203);fill-rule:nonzero;"/>
        <path d="M609.337,643.795L597.831,643.795L498.904,556.975C496.553,500.493 489.771,450.074 472.47,416.116L472.47,401.594C483.815,398.286 507.501,389.758 531.275,371.2C550.531,356.168 565.879,337.625 576.893,316.085C587.296,295.736 593.86,272.598 596.512,247.049C596.768,244.581 594.792,242.579 592.491,242.579C592.075,242.579 591.648,242.644 591.223,242.784L504.164,271.332C502.344,271.929 500.513,272.479 498.673,272.984C499.578,248.697 499.814,221.155 499.866,189.846L609.337,189.846L609.337,220.386C609.337,340.851 535.076,388.367 494.158,405.406C493.006,405.886 492.43,406.896 492.43,407.906C492.43,408.916 493.006,409.925 494.158,410.405C494.738,410.647 495.324,410.894 495.916,411.148C537.164,428.805 609.337,476.667 609.337,595.426L609.337,643.795Z" style="fill:rgb(234,240,238);fill-rule:nonzero;"/>
        <path d="M609.338,643.795L499.879,643.795L609.338,643.795Z" style="fill:rgb(168,136,105);fill-rule:nonzero;"/>
        <path d="M472.47,401.594L472.47,401.205C490.132,373.073 496.439,332.93 498.673,272.984C500.513,272.479 502.344,271.929 504.164,271.332L591.223,242.784C591.648,242.644 592.075,242.579 592.491,242.579C594.792,242.579 596.768,244.581 596.512,247.049C593.86,272.598 587.296,295.736 576.893,316.085C565.879,337.625 550.531,356.168 531.275,371.2C507.501,389.758 483.815,398.286 472.47,401.594Z" style="fill:rgb(241,217,157);fill-rule:nonzero;"/>
        <path d="M597.831,643.795L499.879,643.795C500.146,614.216 500.065,584.855 498.904,556.975L597.831,643.795Z" style="fill:rgb(241,217,157);fill-rule:nonzero;"/>
        <path d="M472.47,416.116C471.015,413.261 469.485,410.521 467.879,407.905C469.488,405.75 471.018,403.518 472.47,401.205L472.47,416.116Z" style="fill:rgb(241,217,157);fill-rule:nonzero;"/>
        <path d="M499.866,189.846L326.378,189.846L326.378,172.017L499.879,172.017C499.879,178.095 499.876,184.03 499.866,189.846Z" style="fill:rgb(215,222,219);fill-rule:nonzero;"/>
        <path d="M609.337,189.846L499.866,189.846C499.876,184.03 499.879,178.095 499.879,172.017L609.337,172.017L609.337,189.846Z" style="fill:rgb(222,227,225);fill-rule:nonzero;"/>
    </g>
</svg>
